<svg width="335" height="182" viewBox="0 0 335 182" fill="none" xmlns="http://www.w3.org/2000/svg">
<rect opacity="0.3" y="13" width="324" height="169" rx="6" fill="#1A36C0"/>
<rect x="11" width="324" height="169" rx="6" fill="#1A36C0"/>
<path d="M133.115 44.6025H112.189C111.877 44.6025 111.57 44.7351 111.352 44.9593C90.1292 66.8098 94.0367 83.2727 99.7136 90.3197C100.318 91.0699 101.491 90.6525 101.739 89.7217C104.851 78.0531 123.089 57.5475 133.949 46.6065C134.683 45.8668 134.157 44.6025 133.115 44.6025Z" fill="white"/>
<path d="M53.9446 122.001H76.8696C77.1728 122.001 77.4715 121.876 77.6878 121.663C100.944 98.8185 96.4567 81.6491 90.2147 74.4345C89.5938 73.7169 88.4497 74.1374 88.2035 75.0539C84.9571 87.1421 64.967 108.597 53.1293 119.979C52.3686 120.711 52.8893 122.001 53.9446 122.001Z" fill="white"/>
<path d="M111.273 121.874C106.937 118.268 99.1747 107.765 100.648 92.8754C100.7 92.3552 101.357 92.1786 101.674 92.5946C107.271 99.9513 117.546 111.297 126.795 116.728C129.607 118.201 131.517 116.689 132.767 114.549C133.115 113.953 134.165 114.176 134.015 114.85C132.874 119.997 130.007 122.001 128.125 122.001H111.634C111.501 122.001 111.375 121.959 111.273 121.874Z" fill="white"/>
<path d="M77.8491 44.7037C82.5901 48.0536 91.1191 57.8728 89.4958 71.8025C89.4371 72.306 88.8056 72.4802 88.4821 72.0899C82.403 64.7572 70.7776 54.297 60.8922 49.5243C57.6099 48.0567 55.4514 49.7618 54.0943 51.9664C53.7394 52.5428 52.7481 52.3129 52.901 51.6535C54.0795 46.57 57.3259 44.6025 59.4374 44.6025H77.523C77.6411 44.6025 77.7527 44.6355 77.8491 44.7037Z" fill="white"/>
<circle cx="95.082" cy="44.4565" r="9.45652" fill="white"/>
<path d="M151.482 98.6411C150.507 98.6411 149.803 98.4882 149.368 98.1825C148.932 97.8716 148.702 97.3612 148.676 96.6513C148.65 96.2575 148.639 95.9 148.645 95.5787C148.655 95.2574 148.673 94.8973 148.699 94.4983H149.748C149.717 94.8973 149.702 95.2937 149.702 95.6875C149.707 96.0813 149.722 96.4622 149.748 96.8301C149.774 97.1306 149.917 97.3534 150.176 97.4985C150.435 97.6384 150.862 97.7084 151.458 97.7084C152.044 97.7084 152.458 97.6384 152.702 97.4985C152.951 97.3534 153.091 97.1306 153.122 96.8301C153.148 96.4622 153.158 96.1435 153.153 95.8741C153.153 95.5994 153.142 95.26 153.122 94.8559C153.101 94.5346 153.015 94.2651 152.865 94.0475C152.72 93.8299 152.394 93.6874 151.886 93.62L150.774 93.4179C150.189 93.3195 149.748 93.177 149.453 92.9904C149.163 92.7987 148.963 92.5552 148.855 92.2598C148.751 91.9593 148.689 91.594 148.668 91.1639C148.652 90.8789 148.647 90.5758 148.652 90.2545C148.658 89.9281 148.668 89.612 148.684 89.3063C148.694 88.6015 148.909 88.0989 149.329 87.7984C149.754 87.4927 150.463 87.3398 151.458 87.3398C152.375 87.3398 153.041 87.4927 153.456 87.7984C153.876 88.1041 154.098 88.6093 154.124 89.314C154.14 89.5576 154.145 89.8607 154.14 90.2234C154.135 90.581 154.124 90.9514 154.109 91.3349H153.052C153.088 90.967 153.106 90.5991 153.106 90.2312C153.106 89.8633 153.093 89.498 153.067 89.1353C153.047 88.8399 152.909 88.6223 152.655 88.4824C152.407 88.3425 152 88.2725 151.435 88.2725C150.849 88.2725 150.43 88.3425 150.176 88.4824C149.927 88.6223 149.79 88.8399 149.764 89.1353C149.738 89.4669 149.725 89.8037 149.725 90.1457C149.73 90.4877 149.743 90.8271 149.764 91.1639C149.785 91.5422 149.865 91.8323 150.005 92.0344C150.15 92.2313 150.489 92.3609 151.023 92.423L152.111 92.594C152.697 92.6821 153.137 92.8246 153.433 93.0215C153.728 93.2184 153.927 93.4698 154.031 93.7755C154.14 94.076 154.202 94.4361 154.218 94.8559C154.243 95.2393 154.254 95.5502 154.249 95.7886C154.243 96.0269 154.228 96.3145 154.202 96.6513C154.166 97.3612 153.935 97.8716 153.51 98.1825C153.091 98.4882 152.414 98.6411 151.482 98.6411ZM156.487 101.058H155.485V90.9774H156.487V91.6847H156.705C156.881 91.41 157.091 91.2079 157.334 91.0784C157.583 90.9437 157.922 90.8763 158.353 90.8763C158.943 90.8763 159.379 91.0059 159.658 91.2649C159.943 91.5188 160.094 91.9463 160.109 92.5474C160.125 92.8117 160.135 93.1329 160.14 93.5112C160.145 93.8843 160.148 94.2807 160.148 94.7004C160.148 95.1149 160.145 95.5191 160.14 95.9129C160.135 96.3067 160.125 96.6565 160.109 96.9622C160.094 97.5581 159.938 97.9856 159.643 98.2447C159.347 98.5038 158.904 98.6333 158.314 98.6333C157.925 98.6333 157.606 98.5711 157.358 98.4468C157.109 98.3172 156.891 98.11 156.705 97.825H156.487V101.058ZM158.034 97.7861C158.733 97.7861 159.094 97.54 159.114 97.0477C159.156 96.2445 159.171 95.4517 159.161 94.6693C159.156 93.8869 159.14 93.1511 159.114 92.4619C159.104 92.2028 159.021 92.0163 158.866 91.9023C158.71 91.7831 158.448 91.7235 158.081 91.7235C157.288 91.7235 156.757 91.9593 156.487 92.4308V97.0788C156.627 97.3327 156.816 97.5141 157.055 97.6229C157.298 97.7317 157.625 97.7861 158.034 97.7861ZM163.824 98.6333C162.969 98.6333 162.358 98.4986 161.99 98.2291C161.627 97.9597 161.433 97.5192 161.407 96.9078C161.386 96.5244 161.371 96.0736 161.361 95.5554C161.355 95.0372 161.355 94.5165 161.361 93.9931C161.371 93.4698 161.386 93.0138 161.407 92.6251C161.433 91.9981 161.633 91.5499 162.006 91.2805C162.384 91.011 162.99 90.8763 163.824 90.8763C164.612 90.8763 165.182 91.0084 165.534 91.2727C165.887 91.537 166.081 91.9722 166.117 92.5785C166.128 92.7599 166.138 93.0759 166.148 93.5267C166.159 93.9776 166.143 94.4569 166.102 94.9647H162.379C162.379 95.2911 162.381 95.6227 162.387 95.9596C162.392 96.2964 162.402 96.6461 162.418 97.0088C162.423 97.2938 162.532 97.4907 162.744 97.5996C162.957 97.7084 163.306 97.7628 163.793 97.7628C164.275 97.7628 164.615 97.7084 164.812 97.5996C165.008 97.4907 165.117 97.2938 165.138 97.0088C165.154 96.7239 165.154 96.3352 165.138 95.843H166.102C166.128 95.9932 166.138 96.1694 166.133 96.3715C166.133 96.5684 166.128 96.7472 166.117 96.9078C166.081 97.5192 165.895 97.9597 165.558 98.2291C165.226 98.4986 164.648 98.6333 163.824 98.6333ZM162.379 94.1408H165.154C165.164 93.7884 165.169 93.4516 165.169 93.1303C165.169 92.8091 165.159 92.5889 165.138 92.4697C165.117 92.2106 165.006 92.0266 164.804 91.9178C164.602 91.8038 164.275 91.7468 163.824 91.7468C163.322 91.7468 162.962 91.8038 162.744 91.9178C162.532 92.0266 162.423 92.2106 162.418 92.4697C162.402 92.7702 162.389 93.0578 162.379 93.3324C162.374 93.6071 162.374 93.8765 162.379 94.1408ZM172.024 93.6356H171.045C171.066 93.4542 171.074 93.2469 171.068 93.0138C171.068 92.7806 171.068 92.5992 171.068 92.4697C171.063 92.1951 170.954 92.0059 170.742 91.9023C170.535 91.7987 170.193 91.7468 169.716 91.7468C169.229 91.7468 168.882 91.7987 168.675 91.9023C168.467 92.0059 168.361 92.1951 168.356 92.4697C168.32 93.2832 168.301 94.0423 168.301 94.747C168.301 95.4466 168.32 96.2005 168.356 97.0088C168.361 97.2938 168.467 97.4907 168.675 97.5996C168.882 97.7084 169.226 97.7628 169.708 97.7628C170.185 97.7628 170.53 97.7084 170.742 97.5996C170.954 97.4907 171.063 97.2938 171.068 97.0088C171.068 96.8689 171.068 96.7005 171.068 96.5036C171.074 96.3015 171.066 96.0813 171.045 95.843H172.024C172.05 95.9932 172.061 96.1694 172.056 96.3715C172.056 96.5684 172.05 96.7472 172.04 96.9078C172.009 97.5192 171.817 97.9597 171.465 98.2291C171.118 98.4986 170.532 98.6333 169.708 98.6333C168.879 98.6333 168.283 98.4986 167.921 98.2291C167.563 97.9597 167.371 97.5192 167.345 96.9078C167.325 96.5244 167.309 96.0736 167.299 95.5554C167.294 95.0372 167.294 94.5165 167.299 93.9931C167.309 93.4698 167.325 93.0138 167.345 92.6251C167.371 91.9981 167.566 91.5499 167.928 91.2805C168.296 91.011 168.892 90.8763 169.716 90.8763C170.535 90.8763 171.123 91.0084 171.48 91.2727C171.843 91.537 172.03 91.9722 172.04 92.5785C172.05 92.734 172.056 92.9127 172.056 93.1148C172.061 93.3117 172.05 93.4853 172.024 93.6356ZM174.496 89.5705H173.493V88.4513H174.496V89.5705ZM174.496 98.54H173.486V90.9774H174.496V98.54ZM177.901 98.6255C177.268 98.6255 176.799 98.5012 176.494 98.2525C176.193 98.0037 176.017 97.6151 175.965 97.0866C175.96 96.9829 175.952 96.8793 175.942 96.7757C175.937 96.672 175.939 96.571 175.95 96.4725C175.986 96.0114 176.131 95.6253 176.385 95.3144C176.639 94.9984 177.121 94.7108 177.831 94.4517C178.121 94.348 178.426 94.2548 178.748 94.1719C179.069 94.089 179.388 94.0086 179.704 93.9309V92.493C179.704 92.2391 179.608 92.0526 179.416 91.9334C179.224 91.809 178.89 91.7468 178.414 91.7468C177.999 91.7468 177.683 91.7987 177.465 91.9023C177.253 92.0059 177.136 92.1951 177.115 92.4697C177.105 92.5992 177.1 92.7858 177.1 93.0293C177.1 93.2677 177.105 93.4698 177.115 93.6356H176.144C176.134 93.506 176.123 93.3376 176.113 93.1303C176.102 92.9231 176.105 92.7391 176.121 92.5785C176.147 91.9774 176.341 91.5448 176.704 91.2805C177.071 91.011 177.654 90.8763 178.452 90.8763C179.287 90.8763 179.864 91.0214 180.186 91.3116C180.512 91.6017 180.678 92.0785 180.683 92.7417V98.54H179.704V97.825H179.486C179.357 98.084 179.17 98.2835 178.926 98.4235C178.688 98.5582 178.346 98.6255 177.901 98.6255ZM178.149 97.7861C178.895 97.7861 179.411 97.5633 179.696 97.1177V94.7626C179.447 94.8144 179.191 94.8766 178.926 94.9491C178.667 95.0165 178.362 95.1098 178.009 95.2289C177.59 95.3844 177.31 95.5632 177.17 95.7652C177.03 95.9673 176.95 96.2031 176.929 96.4725C176.934 96.5503 176.937 96.6358 176.937 96.729C176.942 96.8171 176.95 96.9104 176.96 97.0088C176.996 97.2576 177.121 97.4493 177.333 97.584C177.546 97.7187 177.818 97.7861 178.149 97.7861ZM183.31 98.54H182.3V88.4513H183.31V98.54ZM189.474 98.54H188.393V87.4408H189.474V98.54ZM192.256 98.54H191.254V90.9774H192.256V91.6847H192.497C192.658 91.4256 192.868 91.2261 193.127 91.0862C193.391 90.9463 193.723 90.8763 194.122 90.8763C194.707 90.8763 195.143 91.0059 195.428 91.2649C195.713 91.5188 195.855 91.9463 195.855 92.5474V98.54H194.86V92.4619C194.86 92.2028 194.777 92.0163 194.611 91.9023C194.451 91.7831 194.189 91.7235 193.826 91.7235C193.464 91.7235 193.145 91.7857 192.87 91.9101C192.596 92.0344 192.391 92.208 192.256 92.4308V98.54ZM199.656 98.6333C198.848 98.6333 198.301 98.4986 198.016 98.2291C197.736 97.9597 197.596 97.5192 197.596 96.9078V91.8479H196.85V90.9774H197.619V88.8321H198.607V90.9774H200.317V91.8479H198.599V97.0166C198.599 97.3016 198.658 97.4985 198.778 97.6073C198.897 97.7161 199.197 97.7706 199.679 97.7706C199.876 97.7706 200.026 97.768 200.13 97.7628C200.239 97.7524 200.363 97.7446 200.503 97.7395V98.5711C200.379 98.5919 200.244 98.6074 200.099 98.6178C199.954 98.6281 199.806 98.6333 199.656 98.6333ZM203.651 98.6333C202.796 98.6333 202.185 98.4986 201.817 98.2291C201.454 97.9597 201.26 97.5192 201.234 96.9078C201.213 96.5244 201.197 96.0736 201.187 95.5554C201.182 95.0372 201.182 94.5165 201.187 93.9931C201.197 93.4698 201.213 93.0138 201.234 92.6251C201.26 91.9981 201.459 91.5499 201.832 91.2805C202.21 91.011 202.817 90.8763 203.651 90.8763C204.439 90.8763 205.009 91.0084 205.361 91.2727C205.713 91.537 205.908 91.9722 205.944 92.5785C205.954 92.7599 205.965 93.0759 205.975 93.5267C205.985 93.9776 205.97 94.4569 205.928 94.9647H202.205C202.205 95.2911 202.208 95.6227 202.213 95.9596C202.218 96.2964 202.229 96.6461 202.244 97.0088C202.249 97.2938 202.358 97.4907 202.571 97.5996C202.783 97.7084 203.133 97.7628 203.62 97.7628C204.102 97.7628 204.441 97.7084 204.638 97.5996C204.835 97.4907 204.944 97.2938 204.965 97.0088C204.98 96.7239 204.98 96.3352 204.965 95.843H205.928C205.954 95.9932 205.965 96.1694 205.959 96.3715C205.959 96.5684 205.954 96.7472 205.944 96.9078C205.908 97.5192 205.721 97.9597 205.384 98.2291C205.053 98.4986 204.475 98.6333 203.651 98.6333ZM202.205 94.1408H204.98C204.99 93.7884 204.996 93.4516 204.996 93.1303C204.996 92.8091 204.985 92.5889 204.965 92.4697C204.944 92.2106 204.832 92.0266 204.63 91.9178C204.428 91.8038 204.102 91.7468 203.651 91.7468C203.148 91.7468 202.788 91.8038 202.571 91.9178C202.358 92.0266 202.249 92.2106 202.244 92.4697C202.229 92.7702 202.216 93.0578 202.205 93.3324C202.2 93.6071 202.2 93.8765 202.205 94.1408ZM208.276 98.54H207.273V90.9774H208.276V91.6847H208.493C208.628 91.4256 208.807 91.2261 209.03 91.0862C209.252 90.9463 209.53 90.8763 209.861 90.8763C210.359 90.8763 210.727 91.0084 210.965 91.2727C211.208 91.5318 211.33 91.9826 211.33 92.6251C211.33 92.765 211.325 92.9309 211.315 93.1226C211.304 93.3143 211.289 93.4853 211.268 93.6356H210.304C210.315 93.5837 210.32 93.4931 210.32 93.3635C210.325 93.234 210.328 93.1044 210.328 92.9749C210.333 92.8454 210.335 92.7573 210.335 92.7106C210.335 92.3272 210.271 92.0681 210.141 91.9334C210.011 91.7935 209.804 91.7235 209.519 91.7235C208.913 91.7235 208.498 91.9593 208.276 92.4308V98.54ZM214.859 98.6333C214.004 98.6333 213.393 98.4986 213.025 98.2291C212.662 97.9597 212.468 97.5192 212.442 96.9078C212.421 96.5244 212.405 96.0736 212.395 95.5554C212.39 95.0372 212.39 94.5165 212.395 93.9931C212.405 93.4698 212.421 93.0138 212.442 92.6251C212.468 91.9981 212.667 91.5499 213.04 91.2805C213.418 91.011 214.025 90.8763 214.859 90.8763C215.647 90.8763 216.217 91.0084 216.569 91.2727C216.921 91.537 217.116 91.9722 217.152 92.5785C217.162 92.7599 217.173 93.0759 217.183 93.5267C217.193 93.9776 217.178 94.4569 217.136 94.9647H213.413C213.413 95.2911 213.416 95.6227 213.421 95.9596C213.426 96.2964 213.437 96.6461 213.452 97.0088C213.457 97.2938 213.566 97.4907 213.779 97.5996C213.991 97.7084 214.341 97.7628 214.828 97.7628C215.31 97.7628 215.649 97.7084 215.846 97.5996C216.043 97.4907 216.152 97.2938 216.173 97.0088C216.188 96.7239 216.188 96.3352 216.173 95.843H217.136C217.162 95.9932 217.173 96.1694 217.167 96.3715C217.167 96.5684 217.162 96.7472 217.152 96.9078C217.116 97.5192 216.929 97.9597 216.592 98.2291C216.261 98.4986 215.683 98.6333 214.859 98.6333ZM213.413 94.1408H216.188C216.198 93.7884 216.204 93.4516 216.204 93.1303C216.204 92.8091 216.193 92.5889 216.173 92.4697C216.152 92.2106 216.04 92.0266 215.838 91.9178C215.636 91.8038 215.31 91.7468 214.859 91.7468C214.356 91.7468 213.996 91.8038 213.779 91.9178C213.566 92.0266 213.457 92.2106 213.452 92.4697C213.437 92.7702 213.424 93.0578 213.413 93.3324C213.408 93.6071 213.408 93.8765 213.413 94.1408ZM220.541 98.6333C219.706 98.6333 219.126 98.4986 218.8 98.2291C218.478 97.9597 218.305 97.5192 218.279 96.9078C218.269 96.7472 218.261 96.5684 218.256 96.3715C218.256 96.1694 218.266 95.9932 218.287 95.843H219.196C219.186 96.0813 219.18 96.3015 219.18 96.5036C219.186 96.7005 219.191 96.8689 219.196 97.0088C219.201 97.2938 219.3 97.4907 219.491 97.5996C219.688 97.7084 220.038 97.7628 220.541 97.7628C221.054 97.7628 221.414 97.7084 221.621 97.5996C221.834 97.4907 221.948 97.2938 221.963 97.0088C221.979 96.8327 221.989 96.7031 221.994 96.6202C221.999 96.5321 221.999 96.4078 221.994 96.2471C221.979 95.9829 221.909 95.7782 221.784 95.6331C221.66 95.488 221.39 95.3844 220.976 95.3222L220.067 95.1123C219.6 95.0139 219.24 94.8895 218.986 94.7393C218.732 94.589 218.554 94.3947 218.45 94.1563C218.346 93.9128 218.284 93.6071 218.263 93.2392C218.248 93.0526 218.261 92.8479 218.302 92.6251C218.313 91.9981 218.481 91.5499 218.807 91.2805C219.139 91.011 219.74 90.8763 220.611 90.8763C221.445 90.8763 222.023 91.0084 222.344 91.2727C222.67 91.537 222.849 91.9722 222.88 92.5785C222.88 92.734 222.878 92.9127 222.872 93.1148C222.872 93.3117 222.865 93.4853 222.849 93.6356H221.909C221.935 93.4542 221.945 93.2469 221.94 93.0138C221.94 92.7806 221.935 92.5992 221.924 92.4697C221.919 92.1951 221.823 92.0059 221.637 91.9023C221.455 91.7987 221.113 91.7468 220.611 91.7468C220.103 91.7468 219.756 91.7987 219.569 91.9023C219.388 92.0059 219.287 92.1951 219.266 92.4697C219.261 92.5992 219.253 92.708 219.243 92.7961C219.232 92.879 219.23 92.9956 219.235 93.1459C219.25 93.3273 219.276 93.4879 219.313 93.6278C219.354 93.7677 219.442 93.8843 219.577 93.9776C219.717 94.0656 219.942 94.133 220.253 94.1796L221.124 94.3584C221.756 94.488 222.217 94.69 222.507 94.9647C222.797 95.2341 222.942 95.6435 222.942 96.1927C222.942 96.3067 222.94 96.4285 222.935 96.558C222.935 96.6876 222.929 96.8119 222.919 96.9311C222.883 97.5374 222.691 97.9726 222.344 98.2369C222.002 98.5012 221.401 98.6333 220.541 98.6333ZM226.564 98.6333C225.756 98.6333 225.209 98.4986 224.924 98.2291C224.645 97.9597 224.505 97.5192 224.505 96.9078V91.8479H223.759V90.9774H224.528V88.8321H225.515V90.9774H227.225V91.8479H225.507V97.0166C225.507 97.3016 225.567 97.4985 225.686 97.6073C225.805 97.7161 226.106 97.7706 226.588 97.7706C226.785 97.7706 226.935 97.768 227.039 97.7628C227.147 97.7524 227.272 97.7446 227.412 97.7395V98.5711C227.287 98.5919 227.153 98.6074 227.007 98.6178C226.862 98.6281 226.715 98.6333 226.564 98.6333ZM234.104 98.6411C233.119 98.6411 232.412 98.4882 231.982 98.1825C231.552 97.8716 231.326 97.3612 231.306 96.6513C231.259 95.4647 231.236 94.2496 231.236 93.006C231.236 91.7572 231.259 90.5447 231.306 89.3684C231.326 88.6378 231.552 88.1171 231.982 87.8062C232.412 87.4953 233.111 87.3398 234.08 87.3398C235.024 87.3398 235.71 87.4927 236.14 87.7984C236.575 88.1041 236.811 88.6093 236.847 89.314C236.879 89.6457 236.892 89.9825 236.886 90.3245C236.886 90.6665 236.873 91.0033 236.847 91.3349H235.767C235.793 90.9825 235.806 90.6172 235.806 90.239C235.811 89.8555 235.798 89.4876 235.767 89.1353C235.746 88.8399 235.601 88.6223 235.332 88.4824C235.062 88.3425 234.645 88.2725 234.08 88.2725C233.505 88.2725 233.08 88.3425 232.806 88.4824C232.536 88.6223 232.396 88.8399 232.386 89.1353C232.345 90.4151 232.324 91.7002 232.324 92.9904C232.329 94.2755 232.35 95.5554 232.386 96.8301C232.396 97.1306 232.534 97.3534 232.798 97.4985C233.062 97.6384 233.498 97.7084 234.104 97.7084C234.705 97.7084 235.148 97.6384 235.433 97.4985C235.718 97.3534 235.871 97.1306 235.891 96.8301C235.902 96.1254 235.902 95.4232 235.891 94.7237H234.065V93.7444H236.941C236.967 94.1071 236.982 94.5294 236.987 95.0113C236.993 95.4932 236.98 96.0399 236.949 96.6513C236.933 97.3612 236.7 97.8716 236.249 98.1825C235.803 98.4882 235.088 98.6411 234.104 98.6411ZM239.226 98.54H238.223V90.9774H239.226V91.6847H239.444C239.578 91.4256 239.757 91.2261 239.98 91.0862C240.203 90.9463 240.48 90.8763 240.811 90.8763C241.309 90.8763 241.677 91.0084 241.915 91.2727C242.159 91.5318 242.28 91.9826 242.28 92.6251C242.28 92.765 242.275 92.9309 242.265 93.1226C242.255 93.3143 242.239 93.4853 242.218 93.6356H241.255C241.265 93.5837 241.27 93.4931 241.27 93.3635C241.275 93.234 241.278 93.1044 241.278 92.9749C241.283 92.8454 241.286 92.7573 241.286 92.7106C241.286 92.3272 241.221 92.0681 241.091 91.9334C240.962 91.7935 240.754 91.7235 240.469 91.7235C239.863 91.7235 239.449 91.9593 239.226 92.4308V98.54ZM245.763 98.6333C244.918 98.6333 244.322 98.4882 243.975 98.198C243.628 97.9079 243.441 97.426 243.415 96.7524C243.384 96.3689 243.363 95.944 243.353 95.4777C243.343 95.0061 243.343 94.532 243.353 94.0553C243.363 93.5786 243.384 93.1459 243.415 92.7573C243.441 92.0836 243.628 91.6017 243.975 91.3116C244.327 91.0214 244.923 90.8763 245.763 90.8763C246.612 90.8763 247.206 91.0214 247.542 91.3116C247.884 91.6017 248.068 92.0836 248.094 92.7573C248.125 93.1407 248.146 93.5682 248.157 94.0397C248.167 94.5061 248.167 94.9776 248.157 95.4543C248.146 95.9259 248.125 96.3585 248.094 96.7524C248.068 97.4208 247.884 97.9027 247.542 98.198C247.206 98.4882 246.612 98.6333 245.763 98.6333ZM245.763 97.7628C246.239 97.7628 246.579 97.7058 246.781 97.5918C246.983 97.4726 247.092 97.2783 247.107 97.0088C247.159 96.2005 247.185 95.4492 247.185 94.7548C247.185 94.0605 247.159 93.3091 247.107 92.5008C247.092 92.2261 246.985 92.0318 246.789 91.9178C246.592 91.8038 246.25 91.7468 245.763 91.7468C245.275 91.7468 244.931 91.8038 244.729 91.9178C244.532 92.0318 244.426 92.2261 244.41 92.5008C244.364 93.3091 244.338 94.0631 244.332 94.7626C244.332 95.4569 244.358 96.2057 244.41 97.0088C244.421 97.2783 244.529 97.4726 244.737 97.5918C244.949 97.7058 245.291 97.7628 245.763 97.7628ZM251.203 98.6333C250.623 98.6333 250.185 98.5038 249.89 98.2447C249.6 97.9856 249.455 97.5581 249.455 96.9622V90.9774H250.449V97.0477C250.449 97.3016 250.53 97.4882 250.69 97.6073C250.851 97.7265 251.113 97.7861 251.475 97.7861C251.843 97.7861 252.165 97.7239 252.439 97.5996C252.719 97.4752 252.924 97.3016 253.053 97.0788V90.9774H254.064V98.54H253.053V97.825H252.843C252.501 98.3639 251.955 98.6333 251.203 98.6333ZM256.52 101.058H255.517V90.9774H256.52V91.6847H256.737C256.914 91.41 257.123 91.2079 257.367 91.0784C257.616 90.9437 257.955 90.8763 258.385 90.8763C258.976 90.8763 259.411 91.0059 259.691 91.2649C259.976 91.5188 260.126 91.9463 260.142 92.5474C260.157 92.8117 260.168 93.1329 260.173 93.5112C260.178 93.8843 260.181 94.2807 260.181 94.7004C260.181 95.1149 260.178 95.5191 260.173 95.9129C260.168 96.3067 260.157 96.6565 260.142 96.9622C260.126 97.5581 259.971 97.9856 259.675 98.2447C259.38 98.5038 258.937 98.6333 258.346 98.6333C257.958 98.6333 257.639 98.5711 257.39 98.4468C257.142 98.3172 256.924 98.11 256.737 97.825H256.52V101.058ZM258.067 97.7861C258.766 97.7861 259.126 97.54 259.147 97.0477C259.188 96.2445 259.204 95.4517 259.194 94.6693C259.188 93.8869 259.173 93.1511 259.147 92.4619C259.137 92.2028 259.054 92.0163 258.898 91.9023C258.743 91.7831 258.481 91.7235 258.113 91.7235C257.32 91.7235 256.789 91.9593 256.52 92.4308V97.0788C256.66 97.3327 256.849 97.5141 257.087 97.6229C257.331 97.7317 257.657 97.7861 258.067 97.7861ZM266.935 98.6333C266.09 98.6333 265.494 98.4882 265.147 98.198C264.8 97.9079 264.614 97.426 264.588 96.7524C264.557 96.3689 264.536 95.944 264.525 95.4777C264.515 95.0061 264.515 94.532 264.525 94.0553C264.536 93.5786 264.557 93.1459 264.588 92.7573C264.614 92.0836 264.8 91.6017 265.147 91.3116C265.5 91.0214 266.096 90.8763 266.935 90.8763C267.785 90.8763 268.378 91.0214 268.715 91.3116C269.057 91.6017 269.241 92.0836 269.267 92.7573C269.298 93.1407 269.319 93.5682 269.329 94.0397C269.339 94.5061 269.339 94.9776 269.329 95.4543C269.319 95.9259 269.298 96.3585 269.267 96.7524C269.241 97.4208 269.057 97.9027 268.715 98.198C268.378 98.4882 267.785 98.6333 266.935 98.6333ZM266.935 97.7628C267.412 97.7628 267.751 97.7058 267.953 97.5918C268.155 97.4726 268.264 97.2783 268.28 97.0088C268.331 96.2005 268.357 95.4492 268.357 94.7548C268.357 94.0605 268.331 93.3091 268.28 92.5008C268.264 92.2261 268.158 92.0318 267.961 91.9178C267.764 91.8038 267.422 91.7468 266.935 91.7468C266.448 91.7468 266.103 91.8038 265.901 91.9178C265.704 92.0318 265.598 92.2261 265.583 92.5008C265.536 93.3091 265.51 94.0631 265.505 94.7626C265.505 95.4569 265.531 96.2057 265.583 97.0088C265.593 97.2783 265.702 97.4726 265.909 97.5918C266.121 97.7058 266.463 97.7628 266.935 97.7628ZM271.676 98.54H270.674V90.9774H271.676V91.6847H271.917C272.078 91.4256 272.288 91.2261 272.547 91.0862C272.811 90.9463 273.143 90.8763 273.542 90.8763C274.127 90.8763 274.562 91.0059 274.847 91.2649C275.132 91.5188 275.275 91.9463 275.275 92.5474V98.54H274.28V92.4619C274.28 92.2028 274.197 92.0163 274.031 91.9023C273.871 91.7831 273.609 91.7235 273.246 91.7235C272.884 91.7235 272.565 91.7857 272.29 91.9101C272.016 92.0344 271.811 92.208 271.676 92.4308V98.54ZM151.482 113.641C150.533 113.641 149.855 113.488 149.445 113.183C149.036 112.877 148.818 112.372 148.792 111.667C148.699 109.216 148.699 106.765 148.792 104.314C148.818 103.672 149.038 103.184 149.453 102.853C149.868 102.516 150.539 102.348 151.466 102.348C152.425 102.348 153.122 102.5 153.557 102.806C153.997 103.112 154.228 103.617 154.249 104.322C154.259 104.493 154.264 104.705 154.264 104.959C154.264 105.208 154.259 105.459 154.249 105.713C154.243 105.962 154.238 106.174 154.233 106.35H153.153C153.163 106.014 153.168 105.646 153.168 105.247C153.173 104.848 153.168 104.48 153.153 104.143C153.148 103.832 153.018 103.609 152.764 103.475C152.515 103.34 152.083 103.273 151.466 103.273C150.901 103.273 150.497 103.34 150.254 103.475C150.015 103.609 149.888 103.832 149.873 104.143C149.79 106.708 149.79 109.276 149.873 111.846C149.888 112.151 150.015 112.374 150.254 112.514C150.497 112.649 150.906 112.716 151.482 112.716C152.129 112.716 152.583 112.649 152.842 112.514C153.106 112.374 153.246 112.151 153.262 111.846C153.277 111.483 153.277 111.094 153.262 110.68C153.251 110.26 153.238 109.869 153.223 109.506H154.326C154.352 109.869 154.368 110.229 154.373 110.586C154.378 110.939 154.368 111.299 154.342 111.667C154.311 112.372 154.072 112.877 153.627 113.183C153.186 113.488 152.471 113.641 151.482 113.641ZM157.886 113.633C157.042 113.633 156.446 113.488 156.099 113.198C155.751 112.908 155.565 112.426 155.539 111.752C155.508 111.369 155.487 110.944 155.477 110.478C155.466 110.006 155.466 109.532 155.477 109.055C155.487 108.579 155.508 108.146 155.539 107.757C155.565 107.084 155.751 106.602 156.099 106.312C156.451 106.021 157.047 105.876 157.886 105.876C158.736 105.876 159.329 106.021 159.666 106.312C160.008 106.602 160.192 107.084 160.218 107.757C160.249 108.141 160.27 108.568 160.28 109.04C160.291 109.506 160.291 109.978 160.28 110.454C160.27 110.926 160.249 111.359 160.218 111.752C160.192 112.421 160.008 112.903 159.666 113.198C159.329 113.488 158.736 113.633 157.886 113.633ZM157.886 112.763C158.363 112.763 158.702 112.706 158.904 112.592C159.107 112.473 159.215 112.278 159.231 112.009C159.283 111.201 159.309 110.449 159.309 109.755C159.309 109.06 159.283 108.309 159.231 107.501C159.215 107.226 159.109 107.032 158.912 106.918C158.715 106.804 158.373 106.747 157.886 106.747C157.399 106.747 157.055 106.804 156.852 106.918C156.656 107.032 156.549 107.226 156.534 107.501C156.487 108.309 156.461 109.063 156.456 109.763C156.456 110.457 156.482 111.206 156.534 112.009C156.544 112.278 156.653 112.473 156.86 112.592C157.073 112.706 157.415 112.763 157.886 112.763ZM162.627 113.54H161.625V105.977H162.627V106.685H162.822C162.998 106.41 163.203 106.208 163.436 106.078C163.674 105.944 164.001 105.876 164.415 105.876C165.249 105.876 165.762 106.166 165.954 106.747H166.164C166.335 106.477 166.553 106.265 166.817 106.109C167.081 105.954 167.421 105.876 167.835 105.876C168.39 105.876 168.804 106.006 169.079 106.265C169.353 106.519 169.491 106.946 169.491 107.547V113.54H168.496V107.462C168.485 107.203 168.405 107.016 168.255 106.902C168.105 106.783 167.856 106.724 167.509 106.724C166.819 106.724 166.34 106.967 166.071 107.454V113.54H165.076V107.462C165.065 107.203 164.985 107.016 164.835 106.902C164.685 106.783 164.441 106.724 164.104 106.724C163.368 106.724 162.876 106.959 162.627 107.431V113.54ZM171.908 116.058H170.905V105.977H171.908V106.685H172.126C172.302 106.41 172.512 106.208 172.755 106.078C173.004 105.944 173.343 105.876 173.773 105.876C174.364 105.876 174.799 106.006 175.079 106.265C175.364 106.519 175.514 106.946 175.53 107.547C175.545 107.812 175.556 108.133 175.561 108.511C175.566 108.884 175.569 109.281 175.569 109.7C175.569 110.115 175.566 110.519 175.561 110.913C175.556 111.307 175.545 111.656 175.53 111.962C175.514 112.558 175.359 112.986 175.064 113.245C174.768 113.504 174.325 113.633 173.734 113.633C173.346 113.633 173.027 113.571 172.778 113.447C172.53 113.317 172.312 113.11 172.126 112.825H171.908V116.058ZM173.455 112.786C174.154 112.786 174.514 112.54 174.535 112.048C174.576 111.245 174.592 110.452 174.582 109.669C174.576 108.887 174.561 108.151 174.535 107.462C174.525 107.203 174.442 107.016 174.286 106.902C174.131 106.783 173.869 106.724 173.501 106.724C172.708 106.724 172.177 106.959 171.908 107.431V112.079C172.048 112.333 172.237 112.514 172.475 112.623C172.719 112.732 173.045 112.786 173.455 112.786ZM178.608 113.633C178.027 113.633 177.59 113.504 177.294 113.245C177.004 112.986 176.859 112.558 176.859 111.962V105.977H177.854V112.048C177.854 112.302 177.934 112.488 178.095 112.607C178.255 112.727 178.517 112.786 178.88 112.786C179.248 112.786 179.569 112.724 179.844 112.6C180.123 112.475 180.328 112.302 180.458 112.079V105.977H181.468V113.54H180.458V112.825H180.248C179.906 113.364 179.359 113.633 178.608 113.633ZM185.308 113.633C184.499 113.633 183.953 113.499 183.668 113.229C183.388 112.96 183.248 112.519 183.248 111.908V106.848H182.502V105.977H183.271V103.832H184.258V105.977H185.968V106.848H184.251V112.017C184.251 112.302 184.31 112.499 184.429 112.607C184.549 112.716 184.849 112.771 185.331 112.771C185.528 112.771 185.678 112.768 185.782 112.763C185.891 112.752 186.015 112.745 186.155 112.739V113.571C186.031 113.592 185.896 113.607 185.751 113.618C185.606 113.628 185.458 113.633 185.308 113.633ZM189.303 113.633C188.448 113.633 187.836 113.499 187.469 113.229C187.106 112.96 186.911 112.519 186.886 111.908C186.865 111.524 186.849 111.074 186.839 110.555C186.834 110.037 186.834 109.516 186.839 108.993C186.849 108.47 186.865 108.014 186.886 107.625C186.911 106.998 187.111 106.55 187.484 106.28C187.862 106.011 188.469 105.876 189.303 105.876C190.09 105.876 190.66 106.008 191.013 106.273C191.365 106.537 191.559 106.972 191.596 107.578C191.606 107.76 191.616 108.076 191.627 108.527C191.637 108.978 191.622 109.457 191.58 109.965H187.857C187.857 110.291 187.86 110.623 187.865 110.96C187.87 111.296 187.88 111.646 187.896 112.009C187.901 112.294 188.01 112.491 188.222 112.6C188.435 112.708 188.785 112.763 189.272 112.763C189.754 112.763 190.093 112.708 190.29 112.6C190.487 112.491 190.596 112.294 190.616 112.009C190.632 111.724 190.632 111.335 190.616 110.843H191.58C191.606 110.993 191.616 111.169 191.611 111.371C191.611 111.568 191.606 111.747 191.596 111.908C191.559 112.519 191.373 112.96 191.036 113.229C190.704 113.499 190.127 113.633 189.303 113.633ZM187.857 109.141H190.632C190.642 108.788 190.647 108.452 190.647 108.13C190.647 107.809 190.637 107.589 190.616 107.47C190.596 107.211 190.484 107.027 190.282 106.918C190.08 106.804 189.754 106.747 189.303 106.747C188.8 106.747 188.44 106.804 188.222 106.918C188.01 107.027 187.901 107.211 187.896 107.47C187.88 107.77 187.868 108.058 187.857 108.332C187.852 108.607 187.852 108.877 187.857 109.141ZM193.927 113.54H192.925V105.977H193.927V106.685H194.145C194.28 106.426 194.459 106.226 194.681 106.086C194.904 105.946 195.181 105.876 195.513 105.876C196.011 105.876 196.378 106.008 196.617 106.273C196.86 106.532 196.982 106.983 196.982 107.625C196.982 107.765 196.977 107.931 196.967 108.123C196.956 108.314 196.941 108.485 196.92 108.636H195.956C195.966 108.584 195.972 108.493 195.972 108.364C195.977 108.234 195.979 108.104 195.979 107.975C195.985 107.845 195.987 107.757 195.987 107.711C195.987 107.327 195.922 107.068 195.793 106.933C195.663 106.793 195.456 106.724 195.171 106.724C194.565 106.724 194.15 106.959 193.927 107.431V113.54ZM202.361 113.54H201.28V102.441H202.361V107.446H205.804V102.441H206.892V113.54H205.804V108.441H202.361V113.54ZM210.04 113.633C209.46 113.633 209.022 113.504 208.726 113.245C208.436 112.986 208.291 112.558 208.291 111.962V105.977H209.286V112.048C209.286 112.302 209.366 112.488 209.527 112.607C209.688 112.727 209.949 112.786 210.312 112.786C210.68 112.786 211.001 112.724 211.276 112.6C211.556 112.475 211.76 112.302 211.89 112.079V105.977H212.9V113.54H211.89V112.825H211.68C211.338 113.364 210.791 113.633 210.04 113.633ZM215.356 113.54H214.354V105.977H215.356V106.685H215.551C215.727 106.41 215.932 106.208 216.165 106.078C216.403 105.944 216.73 105.876 217.144 105.876C217.978 105.876 218.491 106.166 218.683 106.747H218.893C219.064 106.477 219.282 106.265 219.546 106.109C219.81 105.954 220.149 105.876 220.564 105.876C221.118 105.876 221.533 106.006 221.808 106.265C222.082 106.519 222.22 106.946 222.22 107.547V113.54H221.225V107.462C221.214 107.203 221.134 107.016 220.984 106.902C220.833 106.783 220.585 106.724 220.238 106.724C219.548 106.724 219.069 106.967 218.8 107.454V113.54H217.805V107.462C217.794 107.203 217.714 107.016 217.564 106.902C217.414 106.783 217.17 106.724 216.833 106.724C216.097 106.724 215.605 106.959 215.356 107.431V113.54ZM225.391 113.626C224.759 113.626 224.29 113.501 223.984 113.252C223.683 113.004 223.507 112.615 223.455 112.087C223.45 111.983 223.442 111.879 223.432 111.776C223.427 111.672 223.429 111.571 223.44 111.473C223.476 111.011 223.621 110.625 223.875 110.314C224.129 109.998 224.611 109.711 225.321 109.452C225.611 109.348 225.917 109.255 226.238 109.172C226.559 109.089 226.878 109.009 227.194 108.931V107.493C227.194 107.239 227.098 107.053 226.906 106.933C226.715 106.809 226.38 106.747 225.904 106.747C225.489 106.747 225.173 106.799 224.955 106.902C224.743 107.006 224.626 107.195 224.606 107.47C224.595 107.599 224.59 107.786 224.59 108.029C224.59 108.268 224.595 108.47 224.606 108.636H223.634C223.624 108.506 223.613 108.338 223.603 108.13C223.593 107.923 223.595 107.739 223.611 107.578C223.637 106.977 223.831 106.545 224.194 106.28C224.562 106.011 225.145 105.876 225.943 105.876C226.777 105.876 227.355 106.021 227.676 106.312C228.002 106.602 228.168 107.078 228.173 107.742V113.54H227.194V112.825H226.976C226.847 113.084 226.66 113.284 226.417 113.423C226.178 113.558 225.836 113.626 225.391 113.626ZM225.639 112.786C226.386 112.786 226.901 112.563 227.186 112.118V109.763C226.937 109.814 226.681 109.877 226.417 109.949C226.158 110.016 225.852 110.11 225.5 110.229C225.08 110.384 224.8 110.563 224.66 110.765C224.52 110.967 224.44 111.203 224.419 111.473C224.424 111.55 224.427 111.636 224.427 111.729C224.432 111.817 224.44 111.91 224.45 112.009C224.487 112.258 224.611 112.449 224.823 112.584C225.036 112.719 225.308 112.786 225.639 112.786ZM230.606 113.54H229.603V105.977H230.606V106.685H230.847C231.008 106.426 231.218 106.226 231.477 106.086C231.741 105.946 232.073 105.876 232.472 105.876C233.057 105.876 233.492 106.006 233.777 106.265C234.062 106.519 234.205 106.946 234.205 107.547V113.54H233.21V107.462C233.21 107.203 233.127 107.016 232.961 106.902C232.801 106.783 232.539 106.724 232.176 106.724C231.813 106.724 231.495 106.786 231.22 106.91C230.946 107.034 230.741 107.208 230.606 107.431V113.54ZM240.135 113.54H239.055V102.441H240.135V113.54ZM242.918 113.54H241.915V105.977H242.918V106.685H243.159C243.319 106.426 243.529 106.226 243.788 106.086C244.053 105.946 244.384 105.876 244.783 105.876C245.369 105.876 245.804 106.006 246.089 106.265C246.374 106.519 246.517 106.946 246.517 107.547V113.54H245.522V107.462C245.522 107.203 245.439 107.016 245.273 106.902C245.112 106.783 244.851 106.724 244.488 106.724C244.125 106.724 243.806 106.786 243.532 106.91C243.257 107.034 243.053 107.208 242.918 107.431V113.54ZM250.317 113.633C249.509 113.633 248.962 113.499 248.677 113.229C248.397 112.96 248.258 112.519 248.258 111.908V106.848H247.511V105.977H248.281V103.832H249.268V105.977H250.978V106.848H249.26V112.017C249.26 112.302 249.32 112.499 249.439 112.607C249.558 112.716 249.859 112.771 250.341 112.771C250.538 112.771 250.688 112.768 250.791 112.763C250.9 112.752 251.025 112.745 251.164 112.739V113.571C251.04 113.592 250.905 113.607 250.76 113.618C250.615 113.628 250.468 113.633 250.317 113.633ZM254.312 113.633C253.457 113.633 252.846 113.499 252.478 113.229C252.115 112.96 251.921 112.519 251.895 111.908C251.874 111.524 251.859 111.074 251.848 110.555C251.843 110.037 251.843 109.516 251.848 108.993C251.859 108.47 251.874 108.014 251.895 107.625C251.921 106.998 252.121 106.55 252.494 106.28C252.872 106.011 253.478 105.876 254.312 105.876C255.1 105.876 255.67 106.008 256.022 106.273C256.375 106.537 256.569 106.972 256.605 107.578C256.616 107.76 256.626 108.076 256.636 108.527C256.647 108.978 256.631 109.457 256.59 109.965H252.867C252.867 110.291 252.869 110.623 252.874 110.96C252.88 111.296 252.89 111.646 252.906 112.009C252.911 112.294 253.02 112.491 253.232 112.6C253.444 112.708 253.794 112.763 254.281 112.763C254.763 112.763 255.103 112.708 255.299 112.6C255.496 112.491 255.605 112.294 255.626 112.009C255.641 111.724 255.641 111.335 255.626 110.843H256.59C256.616 110.993 256.626 111.169 256.621 111.371C256.621 111.568 256.616 111.747 256.605 111.908C256.569 112.519 256.382 112.96 256.046 113.229C255.714 113.499 255.136 113.633 254.312 113.633ZM252.867 109.141H255.641C255.652 108.788 255.657 108.452 255.657 108.13C255.657 107.809 255.647 107.589 255.626 107.47C255.605 107.211 255.494 107.027 255.292 106.918C255.09 106.804 254.763 106.747 254.312 106.747C253.81 106.747 253.45 106.804 253.232 106.918C253.02 107.027 252.911 107.211 252.906 107.47C252.89 107.77 252.877 108.058 252.867 108.332C252.861 108.607 252.861 108.877 252.867 109.141ZM258.937 113.54H257.934V105.977H258.937V106.685H259.155C259.289 106.426 259.468 106.226 259.691 106.086C259.914 105.946 260.191 105.876 260.523 105.876C261.02 105.876 261.388 106.008 261.626 106.273C261.87 106.532 261.992 106.983 261.992 107.625C261.992 107.765 261.986 107.931 261.976 108.123C261.966 108.314 261.95 108.485 261.929 108.636H260.966C260.976 108.584 260.981 108.493 260.981 108.364C260.986 108.234 260.989 108.104 260.989 107.975C260.994 107.845 260.997 107.757 260.997 107.711C260.997 107.327 260.932 107.068 260.802 106.933C260.673 106.793 260.466 106.724 260.181 106.724C259.574 106.724 259.16 106.959 258.937 107.431V113.54ZM264.937 113.626C264.305 113.626 263.836 113.501 263.531 113.252C263.23 113.004 263.054 112.615 263.002 112.087C262.997 111.983 262.989 111.879 262.979 111.776C262.974 111.672 262.976 111.571 262.987 111.473C263.023 111.011 263.168 110.625 263.422 110.314C263.676 109.998 264.158 109.711 264.867 109.452C265.158 109.348 265.463 109.255 265.785 109.172C266.106 109.089 266.425 109.009 266.741 108.931V107.493C266.741 107.239 266.645 107.053 266.453 106.933C266.261 106.809 265.927 106.747 265.45 106.747C265.036 106.747 264.72 106.799 264.502 106.902C264.29 107.006 264.173 107.195 264.152 107.47C264.142 107.599 264.137 107.786 264.137 108.029C264.137 108.268 264.142 108.47 264.152 108.636H263.181C263.17 108.506 263.16 108.338 263.15 108.13C263.139 107.923 263.142 107.739 263.158 107.578C263.183 106.977 263.378 106.545 263.74 106.28C264.108 106.011 264.691 105.876 265.489 105.876C266.324 105.876 266.901 106.021 267.223 106.312C267.549 106.602 267.715 107.078 267.72 107.742V113.54H266.741V112.825H266.523C266.393 113.084 266.207 113.284 265.963 113.423C265.725 113.558 265.383 113.626 264.937 113.626ZM265.186 112.786C265.932 112.786 266.448 112.563 266.733 112.118V109.763C266.484 109.814 266.228 109.877 265.963 109.949C265.704 110.016 265.399 110.11 265.046 110.229C264.627 110.384 264.347 110.563 264.207 110.765C264.067 110.967 263.987 111.203 263.966 111.473C263.971 111.55 263.974 111.636 263.974 111.729C263.979 111.817 263.987 111.91 263.997 112.009C264.033 112.258 264.158 112.449 264.37 112.584C264.582 112.719 264.855 112.786 265.186 112.786ZM273.751 108.636H272.772C272.793 108.454 272.801 108.247 272.795 108.014C272.795 107.781 272.795 107.599 272.795 107.47C272.79 107.195 272.681 107.006 272.469 106.902C272.262 106.799 271.92 106.747 271.443 106.747C270.956 106.747 270.609 106.799 270.402 106.902C270.194 107.006 270.088 107.195 270.083 107.47C270.047 108.283 270.028 109.042 270.028 109.747C270.028 110.447 270.047 111.201 270.083 112.009C270.088 112.294 270.194 112.491 270.402 112.6C270.609 112.708 270.953 112.763 271.435 112.763C271.912 112.763 272.257 112.708 272.469 112.6C272.681 112.491 272.79 112.294 272.795 112.009C272.795 111.869 272.795 111.701 272.795 111.504C272.801 111.302 272.793 111.081 272.772 110.843H273.751C273.777 110.993 273.788 111.169 273.783 111.371C273.783 111.568 273.777 111.747 273.767 111.908C273.736 112.519 273.544 112.96 273.192 113.229C272.845 113.499 272.259 113.633 271.435 113.633C270.606 113.633 270.01 113.499 269.648 113.229C269.29 112.96 269.098 112.519 269.072 111.908C269.052 111.524 269.036 111.074 269.026 110.555C269.021 110.037 269.021 109.516 269.026 108.993C269.036 108.47 269.052 108.014 269.072 107.625C269.098 106.998 269.293 106.55 269.655 106.28C270.023 106.011 270.619 105.876 271.443 105.876C272.262 105.876 272.85 106.008 273.207 106.273C273.57 106.537 273.757 106.972 273.767 107.578C273.777 107.734 273.783 107.913 273.783 108.115C273.788 108.312 273.777 108.485 273.751 108.636ZM277.412 113.633C276.604 113.633 276.057 113.499 275.772 113.229C275.493 112.96 275.353 112.519 275.353 111.908V106.848H274.606V105.977H275.376V103.832H276.363V105.977H278.073V106.848H276.355V112.017C276.355 112.302 276.415 112.499 276.534 112.607C276.653 112.716 276.954 112.771 277.436 112.771C277.633 112.771 277.783 112.768 277.886 112.763C277.995 112.752 278.12 112.745 278.26 112.739V113.571C278.135 113.592 278 113.607 277.855 113.618C277.71 113.628 277.563 113.633 277.412 113.633ZM280.265 104.571H279.262V103.451H280.265V104.571ZM280.265 113.54H279.254V105.977H280.265V113.54ZM284.206 113.633C283.361 113.633 282.765 113.488 282.418 113.198C282.071 112.908 281.884 112.426 281.858 111.752C281.827 111.369 281.806 110.944 281.796 110.478C281.786 110.006 281.786 109.532 281.796 109.055C281.806 108.579 281.827 108.146 281.858 107.757C281.884 107.084 282.071 106.602 282.418 106.312C282.77 106.021 283.366 105.876 284.206 105.876C285.055 105.876 285.649 106.021 285.985 106.312C286.327 106.602 286.511 107.084 286.537 107.757C286.568 108.141 286.589 108.568 286.6 109.04C286.61 109.506 286.61 109.978 286.6 110.454C286.589 110.926 286.568 111.359 286.537 111.752C286.511 112.421 286.327 112.903 285.985 113.198C285.649 113.488 285.055 113.633 284.206 113.633ZM284.206 112.763C284.682 112.763 285.022 112.706 285.224 112.592C285.426 112.473 285.535 112.278 285.55 112.009C285.602 111.201 285.628 110.449 285.628 109.755C285.628 109.06 285.602 108.309 285.55 107.501C285.535 107.226 285.428 107.032 285.232 106.918C285.035 106.804 284.693 106.747 284.206 106.747C283.718 106.747 283.374 106.804 283.172 106.918C282.975 107.032 282.869 107.226 282.853 107.501C282.807 108.309 282.781 109.063 282.775 109.763C282.775 110.457 282.801 111.206 282.853 112.009C282.864 112.278 282.972 112.473 283.18 112.592C283.392 112.706 283.734 112.763 284.206 112.763ZM288.947 113.54H287.944V105.977H288.947V106.685H289.188C289.348 106.426 289.558 106.226 289.817 106.086C290.082 105.946 290.413 105.876 290.812 105.876C291.398 105.876 291.833 106.006 292.118 106.265C292.403 106.519 292.546 106.946 292.546 107.547V113.54H291.551V107.462C291.551 107.203 291.468 107.016 291.302 106.902C291.141 106.783 290.88 106.724 290.517 106.724C290.154 106.724 289.835 106.786 289.561 106.91C289.286 107.034 289.082 107.208 288.947 107.431V113.54ZM295.243 113.54H293.867V112.149H295.243V113.54Z" fill="#FFC145"/>
<path d="M156.378 80.4922C154.415 80.4922 152.823 79.8422 151.603 78.5422C150.382 77.2422 149.772 75.5443 149.772 73.4484V72.5331C149.772 72.2678 149.905 72.1352 150.17 72.1352H152.12C152.385 72.1352 152.518 72.2678 152.518 72.5331V73.329C152.518 74.7351 152.876 75.8759 153.592 76.7514C154.309 77.6004 155.237 78.0249 156.378 78.0249C157.492 78.0249 158.421 77.6137 159.164 76.7912C159.907 75.9688 160.278 74.881 160.278 73.528C160.278 72.626 160.092 71.8566 159.721 71.2199C159.376 70.5566 158.912 69.9862 158.328 69.5087C157.771 69.0046 156.829 68.2485 155.503 67.2403C154.176 66.2587 153.128 65.423 152.359 64.7332C151.589 64.0169 150.953 63.1679 150.449 62.1863C149.971 61.2047 149.732 60.0506 149.732 58.7241C149.732 56.6547 150.329 55.0231 151.523 53.8293C152.717 52.6089 154.269 51.9987 156.179 51.9987C158.195 51.9987 159.8 52.6619 160.994 53.9884C162.215 55.2884 162.825 57.0262 162.825 59.2016V60.1965C162.825 60.4618 162.692 60.5945 162.427 60.5945H160.437C160.172 60.5945 160.039 60.4618 160.039 60.1965V59.1618C160.039 57.7557 159.681 56.6282 158.965 55.7792C158.275 54.9037 157.346 54.466 156.179 54.466C155.118 54.466 154.242 54.8507 153.553 55.6201C152.863 56.3629 152.518 57.4241 152.518 58.8037C152.518 59.6261 152.664 60.3557 152.956 60.9924C153.274 61.6026 153.738 62.1863 154.348 62.7434C154.959 63.3006 155.861 64.0302 157.055 64.9322C158.646 66.0995 159.827 67.0546 160.596 67.7975C161.392 68.5138 162.002 69.3097 162.427 70.1852C162.851 71.0341 163.064 72.0688 163.064 73.2892C163.064 75.4647 162.44 77.2157 161.193 78.5422C159.946 79.8422 158.341 80.4922 156.378 80.4922ZM167.919 80.1738C167.654 80.1738 167.521 80.0412 167.521 79.7759V52.715C167.521 52.4497 167.654 52.317 167.919 52.317H169.949C170.214 52.317 170.347 52.4497 170.347 52.715V79.7759C170.347 80.0412 170.214 80.1738 169.949 80.1738H167.919ZM182.16 80.4922C180.117 80.4922 178.485 79.8953 177.265 78.7014C176.045 77.481 175.434 75.8627 175.434 73.8464V58.6445C175.434 56.6282 176.045 55.0231 177.265 53.8293C178.485 52.6089 180.117 51.9987 182.16 51.9987C184.203 51.9987 185.834 52.6089 187.055 53.8293C188.302 55.0497 188.925 56.668 188.925 58.6843V60.3955C188.925 60.6608 188.792 60.7935 188.527 60.7935H186.498C186.232 60.7935 186.1 60.6608 186.1 60.3955V58.6047C186.1 57.3578 185.741 56.3629 185.025 55.6201C184.309 54.8507 183.354 54.466 182.16 54.466C180.993 54.466 180.037 54.8507 179.295 55.6201C178.578 56.3894 178.22 57.3843 178.22 58.6047V73.8862C178.22 75.1065 178.578 76.1014 179.295 76.8708C180.037 77.6402 180.993 78.0249 182.16 78.0249C183.354 78.0249 184.309 77.6535 185.025 76.9106C185.741 76.1412 186.1 75.1331 186.1 73.8862V68.7923C186.1 68.6862 186.047 68.6332 185.94 68.6332H182.518C182.253 68.6332 182.12 68.5005 182.12 68.2352V66.5638C182.12 66.2985 182.253 66.1658 182.518 66.1658H188.527C188.792 66.1658 188.925 66.2985 188.925 66.5638V73.8464C188.925 75.8627 188.302 77.481 187.055 78.7014C185.834 79.8953 184.203 80.4922 182.16 80.4922ZM208.4 80.4922C206.012 80.4922 204.088 79.7891 202.629 78.383C201.197 76.9504 200.48 75.0402 200.48 72.6525V59.7588C200.48 57.3976 201.197 55.5139 202.629 54.1078C204.088 52.7017 206.012 51.9987 208.4 51.9987C210.814 51.9987 212.737 52.7017 214.17 54.1078C215.629 55.5139 216.359 57.3976 216.359 59.7588V60.1965C216.359 60.3292 216.306 60.4486 216.2 60.5547C216.12 60.6343 216.014 60.6741 215.881 60.6741L211.225 60.873C210.907 60.873 210.748 60.7271 210.748 60.4353V59.4006C210.748 58.6312 210.535 58.0078 210.111 57.5302C209.686 57.0527 209.116 56.8139 208.4 56.8139C207.71 56.8139 207.153 57.0527 206.728 57.5302C206.304 58.0078 206.092 58.6312 206.092 59.4006V73.13C206.092 73.8994 206.304 74.5229 206.728 75.0004C207.153 75.4514 207.71 75.6769 208.4 75.6769C209.116 75.6769 209.686 75.4514 210.111 75.0004C210.535 74.5229 210.748 73.8994 210.748 73.13V72.0556C210.748 71.9229 210.787 71.8168 210.867 71.7372C210.973 71.6311 211.092 71.578 211.225 71.578L215.881 71.777C216.014 71.777 216.12 71.8301 216.2 71.9362C216.306 72.0158 216.359 72.1219 216.359 72.2545V72.6525C216.359 75.0402 215.629 76.9504 214.17 78.383C212.711 79.7891 210.787 80.4922 208.4 80.4922ZM229.327 52.7946C229.327 52.6619 229.367 52.5558 229.446 52.4762C229.552 52.3701 229.672 52.317 229.804 52.317H234.46C234.593 52.317 234.699 52.3701 234.779 52.4762C234.885 52.5558 234.938 52.6619 234.938 52.7946V79.6963C234.938 79.8289 234.885 79.9483 234.779 80.0544C234.699 80.134 234.593 80.1738 234.46 80.1738H229.804C229.672 80.1738 229.552 80.134 229.446 80.0544C229.367 79.9483 229.327 79.8289 229.327 79.6963V68.8321C229.327 68.6995 229.26 68.6332 229.128 68.6332H225.148C225.016 68.6332 224.949 68.6995 224.949 68.8321V79.6963C224.949 79.8289 224.896 79.9483 224.79 80.0544C224.71 80.134 224.604 80.1738 224.472 80.1738H219.816C219.683 80.1738 219.564 80.134 219.457 80.0544C219.378 79.9483 219.338 79.8289 219.338 79.6963V52.7946C219.338 52.6619 219.378 52.5558 219.457 52.4762C219.564 52.3701 219.683 52.317 219.816 52.317H224.472C224.604 52.317 224.71 52.3701 224.79 52.4762C224.896 52.5558 224.949 52.6619 224.949 52.7946V63.6189C224.949 63.7516 225.016 63.8179 225.148 63.8179H229.128C229.26 63.8179 229.327 63.7516 229.327 63.6189V52.7946ZM238.936 80.1738C238.803 80.1738 238.684 80.134 238.578 80.0544C238.498 79.9483 238.459 79.8289 238.459 79.6963V52.7946C238.459 52.6619 238.498 52.5558 238.578 52.4762C238.684 52.3701 238.803 52.317 238.936 52.317H243.592C243.725 52.317 243.831 52.3701 243.911 52.4762C244.017 52.5558 244.07 52.6619 244.07 52.7946V79.6963C244.07 79.8289 244.017 79.9483 243.911 80.0544C243.831 80.134 243.725 80.1738 243.592 80.1738H238.936ZM249.66 80.0942C248.996 80.0942 248.453 79.882 248.028 79.4575C247.63 79.033 247.431 78.5024 247.431 77.8657C247.431 77.2024 247.63 76.6718 248.028 76.2739C248.453 75.8494 248.996 75.6372 249.66 75.6372C250.296 75.6372 250.827 75.8494 251.252 76.2739C251.676 76.6718 251.888 77.2024 251.888 77.8657C251.888 78.5024 251.676 79.033 251.252 79.4575C250.827 79.882 250.296 80.0942 249.66 80.0942Z" fill="white"/>
</svg>
