<svg width="37" height="34" viewBox="0 0 37 34" fill="none" xmlns="http://www.w3.org/2000/svg">
<path fill-rule="evenodd" clip-rule="evenodd" d="M26.6935 6.24766C26.6935 4.3635 28.3129 2.8335 30.3071 2.8335C32.3013 2.8335 33.9206 4.3635 33.9206 6.24766C33.9206 8.13183 32.3013 9.66183 30.3071 9.66183C28.3129 9.66183 26.6935 8.13183 26.6935 6.24766ZM20.9207 20.9092L25.254 15.6264L25.194 15.6548C25.4339 15.3431 25.4789 14.9464 25.3139 14.5923C25.1505 14.2381 24.7892 13.9973 24.4008 13.9689C23.9945 13.9264 23.5911 14.0964 23.3497 14.4081L19.7227 18.8423L15.5679 15.7539C15.313 15.5698 15.0131 15.4975 14.7132 15.5273C14.4149 15.5698 14.145 15.7242 13.9635 15.9508L9.52685 21.4064L9.43539 21.5339C9.18049 21.9858 9.30044 22.5667 9.75026 22.8798C9.96017 23.0073 10.1851 23.0923 10.44 23.0923C10.7863 23.1064 11.1147 22.935 11.3246 22.6673L15.0881 18.09L19.3614 21.1231L19.4963 21.2067C19.9761 21.4475 20.5759 21.3356 20.9207 20.9092ZM24.0994 5.35559C24.0395 5.70975 24.0095 6.06392 24.0095 6.41809C24.0095 9.60559 26.7384 12.1825 30.097 12.1825C30.4719 12.1825 30.8317 12.1414 31.2066 12.0848V23.5158C31.2066 28.3198 28.2078 31.1673 23.1098 31.1673H12.0308C6.9314 31.1673 3.93262 28.3198 3.93262 23.5158V13.0339C3.93262 8.21725 6.9314 5.35559 12.0308 5.35559H24.0994Z" fill="#1A36C0"/>
</svg>
