<svg width="35" height="35" viewBox="0 0 35 35" fill="none" xmlns="http://www.w3.org/2000/svg">
<path fill-rule="evenodd" clip-rule="evenodd" d="M26.6186 16.9702C26.2236 18.6495 25.3162 20.1159 24.073 21.2037L25.4146 26.6328C26.0895 29.3639 23.276 31.4635 20.9119 30.2944L18.3848 29.0446C17.8283 28.7694 17.172 28.7694 16.6155 29.0446L14.0884 30.2944C11.7243 31.4635 8.91081 29.3639 9.58571 26.6328L10.9274 21.2037C9.68411 20.1159 8.77676 18.6495 8.38177 16.9702C7.90074 14.925 7.90074 12.7961 8.38177 10.7509C9.08781 7.74903 11.4309 5.42777 14.4033 4.73241C16.4403 4.25586 18.56 4.25586 20.5971 4.73241C23.5694 5.42777 25.9125 7.74904 26.6186 10.7509C27.0996 12.7961 27.0996 14.925 26.6186 16.9702ZM20.5971 22.9886C20.6899 22.9669 20.7822 22.9436 20.8738 22.9187C21.3831 22.7805 21.8723 22.5942 22.3362 22.3647L23.514 27.1309C23.7395 28.0435 22.768 28.9719 21.7609 28.4739L19.2339 27.2242C18.1407 26.6835 16.8597 26.6835 15.7665 27.2242L13.2394 28.4739C12.2324 28.9719 11.2608 28.0435 11.4863 27.1309L12.6642 22.3647C13.1007 22.5807 13.5596 22.7584 14.0366 22.8938C14.1577 22.9281 14.2799 22.9598 14.4033 22.9886C16.4403 23.4652 18.56 23.4652 20.5971 22.9886Z" fill="#1A36C0"/>
</svg>
