<svg width="40" height="40" viewBox="0 0 40 40" fill="none" xmlns="http://www.w3.org/2000/svg">
<path fill-rule="evenodd" clip-rule="evenodd" d="M24.9504 5.57283C21.6943 4.80906 18.3057 4.80906 15.0496 5.57283C10.3474 6.67582 6.67583 10.3474 5.57283 15.0496C4.80906 18.3057 4.80906 21.6943 5.57283 24.9504C6.67583 29.6527 10.3474 33.3242 15.0496 34.4272C18.3057 35.1909 21.6943 35.1909 24.9504 34.4272C29.6526 33.3242 33.3242 29.6526 34.4272 24.9504C35.1909 21.6943 35.1909 18.3057 34.4272 15.0496C33.3242 10.3474 29.6526 6.67582 24.9504 5.57283ZM14.2563 15.2135C14.2563 14.6848 14.6849 14.2562 15.2136 14.2562H21.5955C22.1242 14.2562 22.5528 14.6848 22.5528 15.2135C22.5528 15.7422 22.1242 16.1708 21.5955 16.1708H15.2136C14.6849 16.1708 14.2563 15.7422 14.2563 15.2135ZM14.2563 20C14.2563 19.4713 14.6849 19.0427 15.2136 19.0427H24.7864C25.3151 19.0427 25.7437 19.4713 25.7437 20C25.7437 20.5287 25.3151 20.9572 24.7864 20.9572H15.2136C14.6849 20.9572 14.2563 20.5287 14.2563 20ZM14.2563 24.7864C14.2563 24.2577 14.6849 23.8291 15.2136 23.8291H20C20.5287 23.8291 20.9573 24.2577 20.9573 24.7864C20.9573 25.3151 20.5287 25.7437 20 25.7437H15.2136C14.6849 25.7437 14.2563 25.3151 14.2563 24.7864Z" fill="#1A36C0"/>
</svg>
