<svg width="37" height="37" viewBox="0 0 37 37" fill="none" xmlns="http://www.w3.org/2000/svg">
<path fill-rule="evenodd" clip-rule="evenodd" d="M25.5486 4.625C23.7382 4.625 22.0019 5.3442 20.7217 6.62439L12.6708 14.6752C8.97324 18.3728 6.35008 23.0058 5.08181 28.0789L4.6928 29.6349C4.28933 31.2488 5.75118 32.7107 7.36506 32.3072L8.92112 31.9182C13.9942 30.6499 18.6272 28.0268 22.3248 24.3292L30.3756 16.2783C31.6558 14.9981 32.375 13.2618 32.375 11.4514C32.375 7.68127 29.3187 4.625 25.5486 4.625ZM23.235 13.765C24.4673 14.9974 25.896 15.5224 26.9557 15.3379L28.1955 14.0982C28.8975 13.3962 29.2918 12.4441 29.2918 11.4514C29.2918 9.38406 27.6159 7.70818 25.5486 7.70818C24.5559 7.70818 23.6038 8.10255 22.9018 8.80453L21.6621 10.0443C21.4776 11.104 22.0026 12.5327 23.235 13.765Z" fill="#1A36C0"/>
</svg>
