<svg width="32" height="32" viewBox="0 0 32 32" fill="none" xmlns="http://www.w3.org/2000/svg">
<path d="M12.1799 27.6981V23.6211C12.1799 22.5804 13.0297 21.7367 14.0781 21.7367H17.9103C18.4137 21.7367 18.8966 21.9353 19.2525 22.2887C19.6085 22.6421 19.8085 23.1214 19.8085 23.6211V27.6981C19.8053 28.1308 19.9763 28.5468 20.2833 28.8539C20.5904 29.161 21.0082 29.3337 21.4441 29.3336H24.0586C25.2797 29.3368 26.4518 28.8575 27.3164 28.0014C28.1809 27.1454 28.6668 25.983 28.6668 24.7708V13.1561C28.6668 12.1769 28.2296 11.2481 27.473 10.6199L18.5789 3.56815C17.0317 2.33174 14.815 2.37166 13.314 3.66296L4.62285 10.6199C3.83048 11.2296 3.3569 12.1612 3.3335 13.1561V24.7589C3.3335 27.2855 5.39667 29.3336 7.94173 29.3336H10.4966C11.4018 29.3337 12.1375 28.6086 12.1441 27.71L12.1799 27.6981Z" fill="white"/>
</svg>
