<svg width="29" height="29" viewBox="0 0 29 29" fill="none" xmlns="http://www.w3.org/2000/svg">
<path d="M15.9906 0.000976562C17.6218 0.00532634 18.4497 0.0140259 19.1645 0.0343249L19.4458 0.0444743C19.7706 0.0560737 20.091 0.070573 20.4781 0.0879721C22.0209 0.160468 23.0735 0.404056 23.9971 0.762188C24.9541 1.13047 25.7602 1.62924 26.5664 2.43395C27.304 3.15853 27.8745 4.03536 28.2381 5.00322C28.5963 5.92683 28.8399 6.97947 28.9124 8.52365C28.9298 8.90933 28.9443 9.22976 28.9559 9.55599L28.9646 9.83728C28.9863 10.5506 28.995 11.3786 28.9979 13.0097L28.9994 14.0914V15.9908C29.0029 17.0484 28.9918 18.1059 28.966 19.1632L28.9573 19.4445C28.9457 19.7707 28.9312 20.0912 28.9138 20.4768C28.8413 22.021 28.5948 23.0722 28.2381 23.9973C27.8745 24.9651 27.304 25.842 26.5664 26.5665C25.8418 27.3041 24.965 27.8746 23.9971 28.2383C23.0735 28.5964 22.0209 28.84 20.4781 28.9125L19.4458 28.956L19.1645 28.9647C18.4497 28.985 17.6218 28.9952 15.9906 28.9981L14.909 28.9995H13.011C11.9529 29.0032 10.8949 28.9921 9.83713 28.9662L9.55584 28.9575C9.21165 28.9444 8.86752 28.9294 8.52349 28.9125C6.98077 28.84 5.92813 28.5964 5.00307 28.2383C4.03572 27.8745 3.15941 27.3039 2.43525 26.5665C1.69716 25.8421 1.12613 24.9653 0.762036 23.9973C0.403905 23.0737 0.160317 22.021 0.0878202 20.4768L0.0443225 19.4445L0.037073 19.1632C0.0103451 18.1059 -0.00173889 17.0484 0.000824714 15.9908V13.0097C-0.00318853 11.9521 0.0074454 10.8946 0.0327232 9.83728L0.0428727 9.55599C0.0544721 9.22976 0.0689713 8.90933 0.0863704 8.52365C0.158867 6.97947 0.402454 5.92828 0.760586 5.00322C1.12552 4.03496 1.69756 3.1581 2.4367 2.43395C3.16044 1.69674 4.03624 1.12623 5.00307 0.762188C5.92813 0.404056 6.97932 0.160468 8.52349 0.0879721C8.90917 0.070573 9.23106 0.0560737 9.55584 0.0444743L9.83713 0.0357747C10.8944 0.0100135 11.952 -0.00110364 13.0096 0.00242638L15.9906 0.000976562ZM14.5001 7.25061C12.5774 7.25061 10.7334 8.01441 9.37383 9.37398C8.01426 10.7336 7.25046 12.5775 7.25046 14.5002C7.25046 16.423 8.01426 18.2669 9.37383 19.6265C10.7334 20.9861 12.5774 21.7499 14.5001 21.7499C16.4228 21.7499 18.2668 20.9861 19.6264 19.6265C20.9859 18.2669 21.7497 16.423 21.7497 14.5002C21.7497 12.5775 20.9859 10.7336 19.6264 9.37398C18.2668 8.01441 16.4228 7.25061 14.5001 7.25061ZM14.5001 10.1505C15.0713 10.1504 15.637 10.2628 16.1647 10.4813C16.6925 10.6998 17.1721 11.0201 17.5761 11.424C17.98 11.8278 18.3005 12.3073 18.5192 12.835C18.7379 13.3627 18.8505 13.9283 18.8506 14.4995C18.8507 15.0707 18.7383 15.6364 18.5198 16.1642C18.3013 16.6919 17.9809 17.1715 17.5771 17.5755C17.1732 17.9795 16.6938 18.3 16.1661 18.5186C15.6384 18.7373 15.0728 18.8499 14.5015 18.85C13.3479 18.85 12.2415 18.3917 11.4258 17.576C10.61 16.7603 10.1518 15.6539 10.1518 14.5002C10.1518 13.3466 10.61 12.2402 11.4258 11.4245C12.2415 10.6087 13.3479 10.1505 14.5015 10.1505M22.1137 5.07572C21.633 5.07572 21.172 5.26667 20.8321 5.60656C20.4922 5.94646 20.3012 6.40745 20.3012 6.88813C20.3012 7.36881 20.4922 7.8298 20.8321 8.1697C21.172 8.50959 21.633 8.70054 22.1137 8.70054C22.5943 8.70054 23.0553 8.50959 23.3952 8.1697C23.7351 7.8298 23.9261 7.36881 23.9261 6.88813C23.9261 6.40745 23.7351 5.94646 23.3952 5.60656C23.0553 5.26667 22.5943 5.07572 22.1137 5.07572Z" fill="white"/>
</svg>
