<svg width="40" height="40" viewBox="0 0 40 40" fill="none" xmlns="http://www.w3.org/2000/svg">
<path fill-rule="evenodd" clip-rule="evenodd" d="M27.1863 5.71817C22.4405 4.76061 17.5599 4.76061 12.814 5.71817C9.84154 6.31791 7.44941 8.59393 6.62878 11.6032L6.55894 11.8593C5.59168 15.4062 5.59168 19.1599 6.55894 22.7068L6.62878 22.9629C7.44941 25.9721 9.84154 28.2482 12.814 28.8479C14.8108 29.2508 16.8314 29.4842 18.8559 29.548V32.6377H16.1858C15.5539 32.6377 15.0416 33.1666 15.0416 33.8189C15.0416 34.4712 15.5539 35 16.1858 35H23.8145C24.4465 35 24.9588 34.4712 24.9588 33.8189C24.9588 33.1666 24.4465 32.6377 23.8145 32.6377H21.1445V29.548C23.1689 29.4842 25.1895 29.2508 27.1863 28.8479C30.1588 28.2482 32.5509 25.9721 33.3716 22.9629L33.4414 22.7068C34.4086 19.1599 34.4086 15.4062 33.4414 11.8593L33.3716 11.6032C32.5509 8.59394 30.1588 6.31791 27.1863 5.71817ZM23.4117 19.1647C23.4244 19.1529 23.4371 19.1411 23.4498 19.1293L25.9526 16.8042C26.3284 16.4551 26.3589 15.8577 26.0207 15.4698C25.6825 15.0819 25.1036 15.0504 24.7278 15.3995L22.225 17.7246C21.98 17.9522 21.8213 18.098 21.7025 18.1945C21.6106 18.0706 21.4917 17.8889 21.3089 17.6058L20.2148 15.9119C20.2054 15.8973 20.1959 15.8826 20.1865 15.868C19.9838 15.554 19.7818 15.241 19.581 15.0086C19.3537 14.7455 19.0236 14.4593 18.5383 14.3964C18.053 14.3334 17.6646 14.5264 17.3813 14.7234C17.131 14.8973 16.8603 15.1489 16.5886 15.4014C16.576 15.4132 16.5633 15.4249 16.5506 15.4367L14.0478 17.7618C13.672 18.1109 13.6415 18.7084 13.9797 19.0963C14.3179 19.4842 14.8967 19.5156 15.2725 19.1665L17.7754 16.8414C18.0204 16.6138 18.1791 16.4681 18.2979 16.3715C18.3898 16.4954 18.5086 16.6771 18.6915 16.9602L19.7855 18.6541C19.7858 18.6546 19.7862 18.6551 19.7865 18.6556C19.7956 18.6697 19.8048 18.6839 19.8139 18.6981C20.0166 19.0121 20.2186 19.325 20.4194 19.5574C20.6467 19.8206 20.9768 20.1067 21.4621 20.1697C21.9474 20.2326 22.3358 20.0396 22.6191 19.8427C22.8693 19.6688 23.1401 19.4172 23.4117 19.1647Z" fill="#1A36C0"/>
</svg>
