<svg width="37" height="37" viewBox="0 0 37 37" fill="none" xmlns="http://www.w3.org/2000/svg">
<path d="M25.1335 23.6437H10.2985V31.1136C10.2985 31.8103 9.71871 32.375 9.0035 32.375C8.28829 32.375 7.7085 31.8103 7.7085 31.1136V5.88636C7.7085 5.18973 8.28829 4.625 9.0035 4.625H25.1335C26.8308 4.625 28.1365 5.64136 28.7891 6.90986C29.4406 8.17598 29.5098 9.80008 28.6941 11.2237L27.9192 12.5762C27.3755 13.5252 27.3755 14.7435 27.9192 15.6925L28.6941 17.0451C29.5098 18.4686 29.4406 20.0927 28.7891 21.3589C28.1365 22.6274 26.8308 23.6437 25.1335 23.6437Z" fill="#1A36C0"/>
</svg>
