<svg width="36" height="36" viewBox="0 0 36 36" fill="none" xmlns="http://www.w3.org/2000/svg">
<path fill-rule="evenodd" clip-rule="evenodd" d="M5.8789 4.51706C5.23812 4.40876 4.62861 4.82731 4.5175 5.45192C4.4064 6.07653 4.83578 6.67067 5.47656 6.77897C6.88108 7.01635 7.98687 8.07866 8.25083 9.44414L8.40231 10.2277C7.78674 11.1237 7.32208 12.1288 7.04334 13.2099C6.38048 15.7809 6.38048 18.4717 7.04334 21.0426C7.09991 21.2621 7.16415 21.4784 7.23575 21.6913C7.2875 21.8451 7.3431 21.9972 7.40244 22.1475L7.68421 22.8654H7.72138C8.27687 23.9871 9.04884 24.9837 9.98487 25.8057C9.78778 26.0497 9.62447 26.3199 9.50051 26.6094C9.24065 27.2163 9.16453 27.8831 9.28114 28.5308C9.39775 29.1786 9.70221 29.7802 10.1585 30.2646C10.6148 30.7491 11.2039 31.096 11.8561 31.2644C12.5083 31.4327 13.1963 31.4156 13.8388 31.2148C14.4812 31.0141 15.0513 30.6383 15.4816 30.1317C15.9052 29.633 16.1758 29.0282 16.2628 28.3867C18.0134 28.6458 19.7929 28.657 21.546 28.4203C21.6054 28.9652 21.7975 29.4901 22.1084 29.9503C22.4806 30.5012 23.0072 30.9363 23.6257 31.2039C24.2442 31.4715 24.9286 31.5603 25.5974 31.4597C26.2661 31.3592 26.8912 31.0735 27.3982 30.6367C27.9053 30.1999 28.2729 29.6303 28.4575 28.9957C28.6421 28.3611 28.6357 27.6882 28.4393 27.0569C28.3166 26.6626 28.1229 26.2948 27.8691 25.9701C28.8919 25.118 29.7317 24.063 30.3248 22.8654H30.362L30.6438 22.1472C30.6986 22.0086 30.7502 21.8684 30.7985 21.7266C30.8749 21.5023 30.9432 21.2742 31.0029 21.0426C31.6657 18.4717 31.6657 15.7809 31.0029 13.2099C30.0977 9.69904 27.2319 6.99003 23.6041 6.21583L22.9557 6.07747C20.3647 5.52452 17.6815 5.52452 15.0905 6.07747L14.4421 6.21583C12.9023 6.54444 11.4997 7.22163 10.3261 8.16076C9.63309 6.27615 7.94787 4.86675 5.8789 4.51706ZM14.9458 25.7942C13.0885 25.3978 11.4943 24.3337 10.442 22.8654H27.6042C26.5519 24.3337 24.9576 25.3978 23.1004 25.7942L22.4521 25.9326C20.1928 26.4147 17.8534 26.4147 15.5941 25.9326L14.9458 25.7942ZM23.8814 28.0698C23.881 28.0373 23.882 28.0049 23.8844 27.9727C24.5879 27.8014 25.2608 27.5568 25.8942 27.2476C26.0294 27.3802 26.1297 27.5435 26.1857 27.7233C26.2511 27.9337 26.2532 28.158 26.1917 28.3696C26.1302 28.5811 26.0076 28.771 25.8386 28.9166C25.6696 29.0622 25.4613 29.1574 25.2383 29.1909C25.0154 29.2244 24.7873 29.1949 24.5811 29.1057C24.375 29.0165 24.1994 28.8714 24.0754 28.6878C23.9513 28.5042 23.884 28.2897 23.8814 28.0698ZM11.9209 27.1309C12.5545 27.4611 13.23 27.7256 13.9379 27.9154C13.9389 27.9689 13.936 28.0225 13.9293 28.0759C13.9018 28.2935 13.811 28.4988 13.6676 28.6677C13.5242 28.8365 13.3341 28.9618 13.12 29.0287C12.9058 29.0956 12.6765 29.1014 12.4591 29.0452C12.2417 28.9891 12.0453 28.8735 11.8932 28.712C11.7411 28.5505 11.6396 28.35 11.6008 28.134C11.5619 27.9181 11.5873 27.6959 11.6739 27.4936C11.732 27.3578 11.8161 27.2349 11.9209 27.1309ZM20.449 10.8536C20.5345 10.3533 21.0199 10.0154 21.5331 10.0988L21.5972 10.1092C24.7324 10.6185 27.0304 13.2627 27.0304 16.3611C27.0304 16.8682 26.6086 17.2793 26.0883 17.2793C25.5681 17.2793 25.1463 16.8682 25.1463 16.3611C25.1463 14.1605 23.5142 12.2825 21.2874 11.9207L21.2233 11.9103C20.7101 11.8269 20.3635 11.3538 20.449 10.8536Z" fill="#1A36C0"/>
</svg>
