<svg width="35" height="35" viewBox="0 0 35 35" fill="none" xmlns="http://www.w3.org/2000/svg">
<path d="M21.6665 7.18356C20.1106 3.43882 14.8894 3.43881 13.3335 7.18355L12.5179 9.1465C12.1931 9.9281 11.4855 10.4596 10.6766 10.5512L8.40057 10.8089C4.55303 11.2445 3.01773 16.0342 5.78418 18.7088L7.71666 20.5771C8.28758 21.1291 8.54428 21.9478 8.38685 22.7441L7.92026 25.1041C7.1456 29.0223 11.3677 32.0808 14.7698 29.8966L16.2962 28.9167C17.0328 28.4437 17.9672 28.4437 18.7038 28.9167L20.2302 29.8966C23.6323 32.0808 27.8544 29.0223 27.0797 25.1041L26.6131 22.7441C26.4557 21.9478 26.7124 21.1291 27.2833 20.5771L29.2158 18.7088C31.9823 16.0342 30.447 11.2445 26.5994 10.8089L24.3234 10.5512C23.5145 10.4596 22.8069 9.9281 22.4821 9.1465L21.6665 7.18356Z" fill="#1A36C0"/>
</svg>
