<svg width="39" height="39" viewBox="0 0 39 39" fill="none" xmlns="http://www.w3.org/2000/svg">
<path d="M21.0845 8.06C21.0845 7.19844 20.4156 6.5 19.5906 6.5C18.7655 6.5 18.0966 7.19844 18.0966 8.06V9.21961C18.0966 10.0812 18.7655 10.7796 19.5906 10.7796C20.4156 10.7796 21.0845 10.0812 21.0845 9.21961V8.06Z" fill="#1A36C0"/>
<path d="M12.196 11.2867C11.6126 10.6775 10.6667 10.6775 10.0832 11.2867C9.49981 11.896 9.49981 12.8837 10.0832 13.4929L10.8685 14.3129C11.4519 14.9221 12.3978 14.9221 12.9813 14.3129C13.5647 13.7037 13.5647 12.7159 12.9813 12.1067L12.196 11.2867Z" fill="#1A36C0"/>
<path d="M29.3094 13.4929C29.8928 12.8837 29.8928 11.8959 29.3094 11.2867C28.7259 10.6775 27.78 10.6775 27.1966 11.2867L26.4113 12.1067C25.8279 12.7159 25.8279 13.7037 26.4113 14.3129C26.9948 14.9221 27.9407 14.9221 28.5241 14.3129L29.3094 13.4929Z" fill="#1A36C0"/>
<path d="M10.1556 23.14H5.55645C4.73136 23.14 4.0625 23.8384 4.0625 24.7C4.0625 25.5616 4.73136 26.26 5.55645 26.26H33.4435C34.2686 26.26 34.9375 25.5616 34.9375 24.7C34.9375 23.8384 34.2686 23.14 33.4435 23.14H28.8444C28.1281 18.4247 24.2172 14.82 19.5 14.82C14.7828 14.82 10.8719 18.4247 10.1556 23.14Z" fill="#1A36C0"/>
<path d="M10.0383 30.94C10.0383 30.0784 10.7072 29.38 11.5323 29.38H27.4677C28.2928 29.38 28.9617 30.0784 28.9617 30.94C28.9617 31.8016 28.2928 32.5 27.4677 32.5H11.5323C10.7072 32.5 10.0383 31.8016 10.0383 30.94Z" fill="#1A36C0"/>
</svg>
