<svg width="47" height="47" viewBox="0 0 47 47" fill="none" xmlns="http://www.w3.org/2000/svg">
<path d="M10.3942 15.4425C10.3942 11.2399 13.8339 7.83301 18.0769 7.83301C22.32 7.83301 25.7596 11.2399 25.7596 15.4425C25.7596 19.6452 22.32 23.0521 18.0769 23.0521C13.8339 23.0521 10.3942 19.6452 10.3942 15.4425Z" fill="#1A36C0"/>
<path d="M13.2212 26.4883L13.5431 26.4375C16.5466 25.9627 19.6072 25.9627 22.6107 26.4375L22.9327 26.4883C27.1648 27.1573 30.2788 30.773 30.2788 35.0179C30.2788 37.309 28.4037 39.1663 26.0905 39.1663H10.0634C7.7502 39.1663 5.875 37.309 5.875 35.0179C5.875 30.773 8.98906 27.1573 13.2212 26.4883Z" fill="#1A36C0"/>
<path d="M28.9231 7.83301C28.1743 7.83301 27.5673 8.43423 27.5673 9.17586C27.5673 9.9175 28.1743 10.5187 28.9231 10.5187C31.6686 10.5187 33.8942 12.7232 33.8942 15.4425C33.8942 18.1619 31.6686 20.3663 28.9231 20.3663C28.1743 20.3663 27.5673 20.9676 27.5673 21.7092C27.5673 22.4508 28.1743 23.0521 28.9231 23.0521C33.1661 23.0521 36.6058 19.6452 36.6058 15.4425C36.6058 11.2399 33.1661 7.83301 28.9231 7.83301Z" fill="#1A36C0"/>
<path d="M31.1667 26.4207C30.418 26.4207 29.811 27.0219 29.811 27.7635C29.811 28.5052 30.418 29.1064 31.1667 29.1064H32.9168C33.0624 29.1064 33.208 29.1178 33.3515 29.1405C36.2677 29.6015 38.4135 32.0929 38.4135 35.0179C38.4135 35.8257 37.7523 36.4806 36.9366 36.4806H33.2432C32.4945 36.4806 31.8875 37.0818 31.8875 37.8235C31.8875 38.5651 32.4945 39.1663 33.2432 39.1663H36.9366C39.2498 39.1663 41.125 37.309 41.125 35.0179C41.125 30.773 38.0109 27.1573 33.7788 26.4883C33.4937 26.4433 33.2052 26.4207 32.9168 26.4207H31.1667Z" fill="#1A36C0"/>
</svg>
