<svg width="48" height="50" viewBox="0 0 48 50" fill="none" xmlns="http://www.w3.org/2000/svg">
<path d="M46.294 5.41333H34.4966C34.3204 5.41333 34.1476 5.48807 34.0248 5.61445C22.0598 17.9331 24.2627 27.2144 27.4632 31.1873C27.8039 31.6103 28.4652 31.3749 28.6052 30.8502C30.3595 24.2718 40.6416 12.7113 46.7639 6.54313C47.1779 6.12609 46.8816 5.41333 46.294 5.41333Z" fill="#1A36C0"/>
<path d="M1.65996 49.0481H14.5844C14.7553 49.0481 14.9237 48.9775 15.0457 48.8577C28.1568 35.9785 25.6271 26.2989 22.108 22.2315C21.758 21.8269 21.1129 22.064 20.9741 22.5807C19.1439 29.3957 7.87407 41.4915 1.20033 47.9082C0.771474 48.3206 1.06503 49.0481 1.65996 49.0481Z" fill="#1A36C0"/>
<path d="M33.9801 48.9763C31.5354 46.9436 27.1595 41.0222 27.9902 32.6279C28.0193 32.3347 28.39 32.2351 28.5685 32.4697C31.724 36.6171 37.517 43.0134 42.7312 46.0751C44.3166 46.906 45.3932 46.0534 46.0979 44.8467C46.2941 44.5107 46.8858 44.6366 46.8016 45.0165C46.1585 47.9185 44.5418 49.0481 43.481 49.0481H34.1837C34.1086 49.0481 34.0379 49.0244 33.9801 48.9763Z" fill="#1A36C0"/>
<path d="M15.1373 5.47035C17.8101 7.35892 22.6185 12.8947 21.7033 20.7479C21.6703 21.0318 21.3142 21.1299 21.1318 20.9099C17.7046 16.776 11.1506 10.8788 5.57748 8.1881C3.72702 7.36069 2.51008 8.32195 1.74499 9.56485C1.54493 9.88983 0.986069 9.76021 1.07225 9.38845C1.73665 6.5225 3.5669 5.41333 4.75728 5.41333H14.9534C15.02 5.41333 15.0829 5.43194 15.1373 5.47035Z" fill="#1A36C0"/>
<circle cx="24.8521" cy="5.33131" r="5.33131" fill="#1A36C0"/>
</svg>
