<svg width="161" height="164" viewBox="0 0 161 164" fill="none" xmlns="http://www.w3.org/2000/svg">
<path d="M154.792 18.1001H115.345C114.756 18.1001 114.178 18.35 113.768 18.7726C73.7607 59.9621 81.1264 90.9956 91.8278 104.28C92.9671 105.694 95.1783 104.907 95.6462 103.152C101.512 81.1564 135.892 42.502 156.363 21.8778C157.747 20.4833 156.756 18.1001 154.792 18.1001Z" fill="white"/>
<path d="M5.55063 164H48.7655C49.3371 164 49.9002 163.764 50.3079 163.363C94.147 120.3 85.6884 87.9344 73.9219 74.3344C72.7515 72.9817 70.5946 73.7744 70.1307 75.502C64.0109 98.2891 26.3285 138.733 4.01376 160.189C2.57982 161.567 3.56138 164 5.55063 164Z" fill="white"/>
<path d="M113.618 163.76C105.444 156.963 90.812 137.164 93.5897 109.097C93.6867 108.116 94.9265 107.783 95.5231 108.567C106.074 122.435 125.444 143.822 142.879 154.059C148.179 156.838 151.779 153.987 154.135 149.952C154.791 148.828 156.77 149.25 156.489 150.52C154.338 160.223 148.932 164 145.385 164H114.298C114.047 164 113.811 163.921 113.618 163.76Z" fill="white"/>
<path d="M50.6142 18.2908C59.5512 24.6055 75.6289 43.1153 72.5689 69.3736C72.4583 70.3228 71.2679 70.651 70.6579 69.9153C59.1986 56.0928 37.284 36.3748 18.6495 27.378C12.4622 24.6114 8.39318 27.8255 5.83496 31.9814C5.16604 33.068 3.2974 32.6346 3.58557 31.3915C5.80707 21.8088 11.9268 18.1001 15.907 18.1001H49.9994C50.222 18.1001 50.4324 18.1623 50.6142 18.2908Z" fill="white"/>
<circle cx="83.0968" cy="17.8261" r="17.8261" fill="white"/>
</svg>
