<svg width="1280" height="192" viewBox="0 0 1280 192" fill="none" xmlns="http://www.w3.org/2000/svg">
    <path
        d="M546.5 119.406C542.415 119.406 539.508 118.792 537.778 117.562C536.049 116.332 535.132 114.311 535.028 111.498C534.819 106.433 534.715 101.494 534.715 96.6801C534.715 91.8452 534.819 86.8956 535.028 81.8314C535.132 79.018 536.049 77.0069 537.778 75.7982C539.508 74.5686 542.415 73.9538 546.5 73.9538C550.564 73.9538 553.482 74.5686 555.253 75.7982C557.024 77.0069 557.921 79.018 557.941 81.8314C558.066 86.9165 558.129 91.866 558.129 96.6801C558.129 101.494 558.066 106.433 557.941 111.498C557.921 114.311 557.024 116.332 555.253 117.562C553.482 118.792 550.564 119.406 546.5 119.406ZM546.5 115.655C549.084 115.655 550.897 115.395 551.939 114.874C552.981 114.332 553.534 113.456 553.596 112.248C553.888 107.038 554.003 101.807 553.94 96.5551C553.898 91.3033 553.784 86.1558 553.596 81.1125C553.534 79.8829 552.971 79.0076 551.908 78.4866C550.845 77.9656 549.043 77.7051 546.5 77.7051C543.916 77.7051 542.092 77.9656 541.03 78.4866C539.988 79.0076 539.435 79.8829 539.373 81.1125C539.081 86.1558 538.946 91.3033 538.966 96.5551C539.008 101.807 539.144 107.038 539.373 112.248C539.435 113.456 539.988 114.332 541.03 114.874C542.092 115.395 543.916 115.655 546.5 115.655ZM570.477 119.375C568.143 119.375 566.382 118.854 565.194 117.812C564.027 116.77 563.443 115.051 563.443 112.654V88.5837H567.445V112.998C567.445 114.019 567.768 114.769 568.414 115.249C569.06 115.728 570.112 115.968 571.571 115.968C573.051 115.968 574.343 115.718 575.447 115.217C576.573 114.717 577.396 114.019 577.917 113.123V88.5837H581.981V119H577.917V116.124H577.073C575.697 118.291 573.499 119.375 570.477 119.375ZM591.953 119H587.92V88.5837H591.953V91.4284H592.828C593.37 90.3864 594.089 89.584 594.985 89.0213C595.881 88.4586 596.996 88.1773 598.33 88.1773C600.33 88.1773 601.81 88.7087 602.769 89.7716C603.748 90.8136 604.238 92.6267 604.238 95.2109C604.238 95.7736 604.217 96.4404 604.175 97.2115C604.134 97.9826 604.071 98.6704 603.988 99.2747H600.112C600.153 99.0663 600.174 98.7016 600.174 98.1806C600.195 97.6596 600.205 97.1386 600.205 96.6176C600.226 96.0966 600.237 95.7423 600.237 95.5547C600.237 94.0126 599.976 92.9705 599.455 92.4287C598.934 91.866 598.101 91.5847 596.954 91.5847C594.516 91.5847 592.849 92.5329 591.953 94.4294V119ZM631.778 119H627.433V78.3615H618.899V74.3602H640.344V78.3615H631.778V119ZM652.942 119.375C649.503 119.375 647.044 118.833 645.564 117.75C644.105 116.666 643.324 114.894 643.22 112.435C643.136 110.893 643.074 109.08 643.032 106.996C643.011 104.912 643.011 102.818 643.032 100.713C643.074 98.6078 643.136 96.7739 643.22 95.2109C643.324 92.6892 644.126 90.8865 645.627 89.8028C647.148 88.7191 649.586 88.1773 652.942 88.1773C656.109 88.1773 658.402 88.7087 659.819 89.7716C661.236 90.8344 662.018 92.585 662.163 95.0233C662.205 95.7527 662.247 97.024 662.288 98.8371C662.33 100.65 662.268 102.578 662.101 104.62H647.127C647.127 105.933 647.138 107.267 647.158 108.622C647.179 109.976 647.221 111.383 647.283 112.842C647.304 113.988 647.742 114.78 648.596 115.217C649.451 115.655 650.858 115.874 652.817 115.874C654.755 115.874 656.12 115.655 656.912 115.217C657.704 114.78 658.141 113.988 658.225 112.842C658.287 111.695 658.287 110.132 658.225 108.153H662.101C662.205 108.757 662.247 109.466 662.226 110.278C662.226 111.07 662.205 111.789 662.163 112.435C662.018 114.894 661.267 116.666 659.913 117.75C658.579 118.833 656.255 119.375 652.942 119.375ZM647.127 101.307H658.287C658.329 99.8895 658.35 98.5349 658.35 97.2428C658.35 95.9507 658.308 95.065 658.225 94.5857C658.141 93.5437 657.693 92.8038 656.88 92.3662C656.068 91.9077 654.755 91.6785 652.942 91.6785C650.92 91.6785 649.472 91.9077 648.596 92.3662C647.742 92.8038 647.304 93.5437 647.283 94.5857C647.221 95.7944 647.169 96.951 647.127 98.0556C647.106 99.1601 647.106 100.244 647.127 101.307ZM674.48 119.344C671.937 119.344 670.051 118.844 668.822 117.843C667.613 116.843 666.905 115.28 666.696 113.154C666.675 112.738 666.644 112.321 666.602 111.904C666.582 111.487 666.592 111.081 666.634 110.685C666.78 108.83 667.363 107.277 668.384 106.027C669.405 104.756 671.344 103.599 674.199 102.557C675.366 102.14 676.595 101.765 677.887 101.432C679.179 101.098 680.461 100.775 681.732 100.463V94.6794C681.732 93.6583 681.347 92.908 680.576 92.4287C679.805 91.9285 678.46 91.6785 676.543 91.6785C674.876 91.6785 673.605 91.8869 672.729 92.3037C671.875 92.7205 671.406 93.4811 671.323 94.5857C671.281 95.1067 671.26 95.8569 671.26 96.8364C671.26 97.7951 671.281 98.6078 671.323 99.2747H667.415C667.373 98.7537 667.332 98.0764 667.29 97.2428C667.248 96.4092 667.259 95.6694 667.321 95.0233C667.426 92.6058 668.207 90.8657 669.666 89.8028C671.146 88.7191 673.49 88.1773 676.699 88.1773C680.055 88.1773 682.378 88.7608 683.671 89.9279C684.983 91.0949 685.65 93.0122 685.671 95.6798V119H681.732V116.124H680.857C680.336 117.166 679.586 117.968 678.606 118.531C677.648 119.073 676.272 119.344 674.48 119.344ZM675.48 115.968C678.481 115.968 680.555 115.072 681.701 113.279V103.807C680.701 104.016 679.669 104.266 678.606 104.558C677.564 104.829 676.335 105.204 674.918 105.683C673.23 106.308 672.104 107.027 671.542 107.84C670.979 108.653 670.656 109.601 670.572 110.685C670.593 110.997 670.604 111.341 670.604 111.716C670.625 112.071 670.656 112.446 670.697 112.842C670.843 113.842 671.344 114.613 672.198 115.155C673.052 115.697 674.147 115.968 675.48 115.968ZM695.456 119H691.423V88.5837H695.456V91.4284H696.237C696.946 90.3238 697.769 89.5111 698.707 88.9901C699.665 88.4482 700.978 88.1773 702.646 88.1773C706.001 88.1773 708.064 89.3443 708.835 91.6785H709.679C710.367 90.5948 711.242 89.7403 712.305 89.1151C713.368 88.4899 714.733 88.1773 716.4 88.1773C718.63 88.1773 720.297 88.6983 721.402 89.7403C722.506 90.7615 723.059 92.4808 723.059 94.8983V119H719.057V94.5544C719.016 93.5124 718.693 92.7621 718.088 92.3037C717.484 91.8243 716.483 91.5847 715.087 91.5847C712.315 91.5847 710.388 92.5642 709.304 94.5231V119H705.303V94.5544C705.261 93.5124 704.938 92.7621 704.334 92.3037C703.729 91.8243 702.75 91.5847 701.395 91.5847C698.436 91.5847 696.456 92.5329 695.456 94.4294V119ZM737.126 119.375C733.77 119.375 731.436 118.833 730.123 117.75C728.831 116.666 728.133 114.894 728.029 112.435C727.987 111.789 727.956 111.07 727.935 110.278C727.935 109.466 727.977 108.757 728.06 108.153H731.718C731.676 109.111 731.655 109.997 731.655 110.81C731.676 111.602 731.697 112.279 731.718 112.842C731.739 113.988 732.135 114.78 732.906 115.217C733.698 115.655 735.104 115.874 737.126 115.874C739.189 115.874 740.637 115.655 741.471 115.217C742.325 114.78 742.784 113.988 742.846 112.842C742.909 112.133 742.951 111.612 742.971 111.279C742.992 110.924 742.992 110.424 742.971 109.778C742.909 108.715 742.628 107.892 742.127 107.309C741.627 106.725 740.544 106.308 738.876 106.058L735.219 105.214C733.343 104.818 731.895 104.318 730.874 103.714C729.852 103.109 729.134 102.328 728.717 101.369C728.3 100.39 728.05 99.1601 727.966 97.6804C727.904 96.9302 727.956 96.107 728.123 95.2109C728.164 92.6892 728.842 90.8865 730.155 89.8028C731.488 88.7191 733.906 88.1773 737.407 88.1773C740.762 88.1773 743.086 88.7087 744.378 89.7716C745.691 90.8344 746.41 92.585 746.535 95.0233C746.535 95.6485 746.525 96.3675 746.504 97.1803C746.504 97.9722 746.473 98.6704 746.41 99.2747H742.628C742.732 98.5453 742.773 97.7117 742.753 96.7739C742.753 95.8361 742.732 95.1067 742.69 94.5857C742.669 93.4811 742.284 92.7205 741.533 92.3037C740.804 91.8869 739.429 91.6785 737.407 91.6785C735.365 91.6785 733.968 91.8869 733.218 92.3037C732.489 92.7205 732.082 93.4811 731.999 94.5857C731.978 95.1067 731.947 95.5443 731.905 95.8986C731.864 96.232 731.853 96.7009 731.874 97.3053C731.937 98.0347 732.041 98.6808 732.187 99.2435C732.353 99.8061 732.708 100.275 733.249 100.65C733.812 101.004 734.719 101.275 735.969 101.463L739.47 102.182C742.013 102.703 743.868 103.516 745.035 104.62C746.202 105.704 746.785 107.35 746.785 109.559C746.785 110.018 746.775 110.508 746.754 111.029C746.754 111.55 746.733 112.05 746.691 112.529C746.546 114.967 745.774 116.718 744.378 117.781C743.003 118.844 740.585 119.375 737.126 119.375Z"
        fill="#1A36C0" />
    <path opacity="0.2" d="M769 103L1310 103" stroke="url(#paint0_linear_21_3)" stroke-width="2"
        stroke-linecap="round" />
    <path opacity="0.2" d="M-121 103H521" stroke="url(#paint1_linear_21_3)" stroke-width="2"
        stroke-linecap="round" />
    <path
        d="M546.05 23.5782L546.121 23.879L546.422 23.95L567.823 29L546.422 34.05L546.121 34.121L546.05 34.4218L541 55.8229L535.95 34.4218L535.879 34.121L535.578 34.05L514.177 29L535.578 23.95L535.879 23.879L535.95 23.5782L541 2.17711L546.05 23.5782Z"
        stroke="#1A36C0" />
    <path
        d="M731.05 157.578L731.121 157.879L731.422 157.95L752.823 163L731.422 168.05L731.121 168.121L731.05 168.422L726 189.823L720.95 168.422L720.879 168.121L720.578 168.05L699.177 163L720.578 157.95L720.879 157.879L720.95 157.578L726 136.177L731.05 157.578Z"
        stroke="#1A36C0" />
    <path
        d="M501 57L504.055 69.9453L517 73L504.055 76.0547L501 89L497.945 76.0547L485 73L497.945 69.9453L501 57Z"
        fill="#1A36C0" />
    <path
        d="M769 115L772.055 127.945L785 131L772.055 134.055L769 147L765.945 134.055L753 131L765.945 127.945L769 115Z"
        fill="#1A36C0" />
    <defs>
        <linearGradient id="paint0_linear_21_3" x1="769" y1="103.5" x2="1310" y2="103.5"
            gradientUnits="userSpaceOnUse">
            <stop offset="0.633151" stop-color="#1A36C0" />
            <stop offset="0.925054" stop-color="#1A36C0" stop-opacity="0" />
        </linearGradient>
        <linearGradient id="paint1_linear_21_3" x1="-121" y1="103.5" x2="521" y2="103.5"
            gradientUnits="userSpaceOnUse">
            <stop offset="0.221266" stop-color="#0C195A" stop-opacity="0" />
            <stop offset="0.477839" stop-color="#1A36C0" />
        </linearGradient>
    </defs>
</svg>
