<svg width="1280" height="203" viewBox="0 0 1280 203" fill="none" xmlns="http://www.w3.org/2000/svg">
    <path
        d="M508.761 94H500.728L497.039 49.3602H501.415L502.603 66.741L504.135 89.9987H505.635L507.198 66.741L508.918 49.6728H516.639L518.452 66.741L519.828 89.9987H521.328L522.922 66.741L524.204 49.3602H528.518L524.767 94H516.764L515.232 79.714L513.638 53.5178H511.919L510.231 79.714L508.761 94ZM537.271 94H533.238V53.4241H537.271V66.4284H538.24C538.969 65.3238 539.813 64.5111 540.772 63.9901C541.752 63.4482 543.085 63.1773 544.773 63.1773C547.128 63.1773 548.879 63.6983 550.025 64.7403C551.171 65.7615 551.744 67.4808 551.744 69.8983V94H547.743V69.5544C547.743 68.5124 547.41 67.7621 546.743 67.3037C546.097 66.8243 545.044 66.5847 543.585 66.5847C540.459 66.5847 538.355 67.5329 537.271 69.4294V94ZM564.499 94.3439C561.956 94.3439 560.07 93.8437 558.841 92.8434C557.632 91.843 556.923 90.28 556.715 88.1543C556.694 87.7375 556.663 87.3207 556.621 86.9039C556.6 86.4871 556.611 86.0807 556.652 85.6847C556.798 83.83 557.382 82.2774 558.403 81.027C559.424 79.7557 561.362 78.5991 564.217 77.5571C565.384 77.1402 566.614 76.7651 567.906 76.4317C569.198 76.0982 570.48 75.7752 571.751 75.4626V69.6794C571.751 68.6583 571.366 67.908 570.594 67.4287C569.823 66.9285 568.479 66.6785 566.562 66.6785C564.895 66.6785 563.623 66.8869 562.748 67.3037C561.894 67.7205 561.425 68.4811 561.341 69.5857C561.3 70.1067 561.279 70.8569 561.279 71.8364C561.279 72.7951 561.3 73.6078 561.341 74.2747H557.434C557.392 73.7537 557.35 73.0764 557.309 72.2428C557.267 71.4092 557.278 70.6694 557.34 70.0233C557.444 67.6058 558.226 65.8657 559.685 64.8028C561.164 63.7191 563.509 63.1773 566.718 63.1773C570.073 63.1773 572.397 63.7608 573.689 64.9279C575.002 66.0949 575.669 68.0122 575.69 70.6798V94H571.751V91.124H570.876C570.355 92.1661 569.605 92.9684 568.625 93.5311C567.666 94.0729 566.291 94.3439 564.499 94.3439ZM565.499 90.9677C568.5 90.9677 570.574 90.0716 571.72 88.2794V78.8075C570.719 79.0159 569.688 79.266 568.625 79.5577C567.583 79.8286 566.353 80.2038 564.936 80.6831C563.248 81.3083 562.123 82.0273 561.56 82.8401C560.998 83.6528 560.674 84.6011 560.591 85.6847C560.612 85.9973 560.622 86.3412 560.622 86.7163C560.643 87.0706 560.674 87.4457 560.716 87.8417C560.862 88.842 561.362 89.6131 562.217 90.155C563.071 90.6968 564.165 90.9677 565.499 90.9677ZM591.039 94.3751C587.788 94.3751 585.589 93.8333 584.443 92.7496C583.317 91.6659 582.755 89.8945 582.755 87.4353V67.0848H579.754V63.5837H582.849V54.9558H586.819V63.5837H593.696V67.0848H586.787V87.873C586.787 89.0192 587.027 89.8111 587.506 90.2488C587.986 90.6864 589.194 90.9052 591.132 90.9052C591.924 90.9052 592.529 90.8948 592.946 90.874C593.383 90.8323 593.883 90.801 594.446 90.7802V94.125C593.946 94.2084 593.404 94.2709 592.821 94.3126C592.237 94.3543 591.643 94.3751 591.039 94.3751ZM615.078 57.9256H611.045V53.4241H615.078V57.9256ZM615.078 94H611.014V63.5837H615.078V94ZM630.083 94.3751C626.728 94.3751 624.394 93.8333 623.081 92.7496C621.788 91.6659 621.09 89.8945 620.986 87.4353C620.944 86.7893 620.913 86.0703 620.892 85.2784C620.892 84.4656 620.934 83.757 621.017 83.1527H624.675C624.633 84.1113 624.612 84.997 624.612 85.8098C624.633 86.6017 624.654 87.279 624.675 87.8417C624.696 88.9879 625.092 89.7799 625.863 90.2175C626.655 90.6551 628.061 90.874 630.083 90.874C632.146 90.874 633.594 90.6551 634.428 90.2175C635.283 89.7799 635.741 88.9879 635.804 87.8417C635.866 87.1331 635.908 86.6121 635.929 86.2787C635.949 85.9244 635.949 85.4242 635.929 84.7782C635.866 83.7153 635.585 82.8922 635.085 82.3086C634.584 81.7251 633.501 81.3083 631.833 81.0582L628.176 80.2142C626.3 79.8182 624.852 79.3181 623.831 78.7137C622.81 78.1093 622.091 77.3278 621.674 76.3692C621.257 75.3897 621.007 74.1601 620.924 72.6804C620.861 71.9302 620.913 71.107 621.08 70.2109C621.122 67.6892 621.799 65.8865 623.112 64.8028C624.446 63.7191 626.863 63.1773 630.364 63.1773C633.72 63.1773 636.043 63.7087 637.335 64.7716C638.648 65.8344 639.367 67.585 639.492 70.0233C639.492 70.6485 639.482 71.3675 639.461 72.1803C639.461 72.9722 639.43 73.6704 639.367 74.2747H635.585C635.689 73.5453 635.731 72.7117 635.71 71.7739C635.71 70.8361 635.689 70.1067 635.647 69.5857C635.626 68.4811 635.241 67.7205 634.491 67.3037C633.761 66.8869 632.386 66.6785 630.364 66.6785C628.322 66.6785 626.926 66.8869 626.175 67.3037C625.446 67.7205 625.04 68.4811 624.956 69.5857C624.935 70.1067 624.904 70.5443 624.862 70.8986C624.821 71.232 624.81 71.7009 624.831 72.3053C624.894 73.0347 624.998 73.6808 625.144 74.2435C625.31 74.8061 625.665 75.275 626.207 75.6502C626.769 76.0045 627.676 76.2754 628.926 76.4629L632.427 77.1819C634.97 77.7029 636.825 78.5157 637.992 79.6202C639.159 80.7039 639.742 82.3503 639.742 84.5594C639.742 85.0179 639.732 85.5076 639.711 86.0286C639.711 86.5496 639.69 87.0498 639.649 87.5291C639.503 89.9674 638.732 91.718 637.335 92.7808C635.96 93.8437 633.542 94.3751 630.083 94.3751Z"
        fill="#1A36C0" />
    <path
        d="M561.219 153.493C557.259 153.493 554.414 152.878 552.685 151.648C550.955 150.398 550.048 148.345 549.965 145.49C549.777 140.718 549.684 135.831 549.684 130.829C549.684 125.807 549.777 120.93 549.965 116.199C550.048 113.261 550.955 111.166 552.685 109.916C554.414 108.665 557.228 108.04 561.125 108.04C564.918 108.04 567.679 108.655 569.409 109.885C571.159 111.114 572.108 113.146 572.254 115.98C572.379 117.314 572.431 118.669 572.41 120.044C572.41 121.42 572.358 122.774 572.254 124.108H567.908C568.013 122.691 568.065 121.222 568.065 119.7C568.086 118.158 568.033 116.679 567.908 115.261C567.825 114.074 567.241 113.198 566.158 112.636C565.074 112.073 563.396 111.792 561.125 111.792C558.812 111.792 557.103 112.073 555.998 112.636C554.914 113.198 554.352 114.074 554.31 115.261C554.143 120.409 554.06 125.577 554.06 130.767C554.081 135.935 554.164 141.082 554.31 146.209C554.352 147.418 554.904 148.314 555.967 148.898C557.03 149.46 558.78 149.742 561.219 149.742C563.636 149.742 565.418 149.46 566.564 148.898C567.71 148.314 568.325 147.418 568.409 146.209C568.45 143.375 568.45 140.551 568.409 137.738H561.062V133.799H572.629C572.733 135.258 572.795 136.956 572.816 138.894C572.837 140.832 572.785 143.031 572.66 145.49C572.597 148.345 571.66 150.398 569.847 151.648C568.054 152.878 565.178 153.493 561.219 153.493ZM586.915 153.462C583.518 153.462 581.121 152.878 579.725 151.711C578.328 150.544 577.578 148.606 577.474 145.897C577.349 144.354 577.266 142.645 577.224 140.77C577.182 138.873 577.182 136.967 577.224 135.049C577.266 133.132 577.349 131.392 577.474 129.829C577.578 127.119 578.328 125.181 579.725 124.014C581.142 122.847 583.539 122.264 586.915 122.264C590.332 122.264 592.719 122.847 594.073 124.014C595.449 125.181 596.189 127.119 596.293 129.829C596.418 131.371 596.501 133.09 596.543 134.987C596.585 136.862 596.585 138.759 596.543 140.676C596.501 142.573 596.418 144.313 596.293 145.897C596.189 148.585 595.449 150.523 594.073 151.711C592.719 152.878 590.332 153.462 586.915 153.462ZM586.915 149.96C588.832 149.96 590.197 149.731 591.01 149.273C591.823 148.793 592.26 148.012 592.323 146.928C592.531 143.677 592.635 140.655 592.635 137.863C592.635 135.07 592.531 132.048 592.323 128.797C592.26 127.693 591.833 126.911 591.041 126.453C590.249 125.994 588.874 125.765 586.915 125.765C584.956 125.765 583.57 125.994 582.757 126.453C581.965 126.911 581.538 127.693 581.475 128.797C581.288 132.048 581.184 135.08 581.163 137.894C581.163 140.686 581.267 143.698 581.475 146.928C581.517 148.012 581.955 148.793 582.788 149.273C583.643 149.731 585.018 149.96 586.915 149.96ZM606.765 117.012H602.732V112.51H606.765V117.012ZM606.765 153.086H602.701V122.67H606.765V153.086ZM617.425 153.086H613.392V122.67H617.425V125.515H618.394C619.04 124.473 619.884 123.67 620.926 123.108C621.989 122.545 623.323 122.264 624.927 122.264C627.282 122.264 629.033 122.785 630.179 123.827C631.325 124.848 631.898 126.567 631.898 128.985V153.086H627.897V128.641C627.897 127.599 627.564 126.849 626.897 126.39C626.251 125.911 625.198 125.671 623.739 125.671C622.281 125.671 620.999 125.921 619.894 126.421C618.79 126.922 617.967 127.62 617.425 128.516V153.086ZM646.153 161.871C643.319 161.871 641.037 161.516 639.307 160.808C637.577 160.099 636.66 158.984 636.556 157.463C636.556 157.296 636.546 157.098 636.525 156.869C636.504 156.64 636.494 156.4 636.494 156.15C636.577 155.233 637.035 154.493 637.869 153.93C638.723 153.368 639.703 153.024 640.808 152.899V152.117C638.744 151.68 637.681 150.784 637.619 149.429C637.598 149.075 637.598 148.72 637.619 148.366C637.64 147.658 637.963 147.064 638.588 146.584C639.234 146.105 639.953 145.824 640.745 145.74V144.959C638.578 144.021 637.421 141.947 637.275 138.738C637.213 137.488 637.16 136.404 637.119 135.487C637.098 134.549 637.098 133.611 637.119 132.673C637.14 131.715 637.192 130.589 637.275 129.297C637.379 126.817 638.098 125.025 639.432 123.921C640.787 122.816 642.944 122.264 645.903 122.264C648.07 122.264 649.79 122.514 651.061 123.014C652.332 123.514 653.249 124.296 653.812 125.358H654.687C654.833 123.566 656.177 122.67 658.72 122.67V126.171H657.626C655.771 126.171 654.802 127.245 654.718 129.391L654.656 131.861C654.698 133.069 654.718 134.163 654.718 135.143C654.718 136.122 654.656 137.321 654.531 138.738C654.427 141.26 653.718 143.062 652.405 144.146C651.092 145.23 648.925 145.772 645.903 145.772C644.152 145.751 642.881 145.886 642.089 146.178C641.297 146.47 640.901 146.949 640.901 147.616V147.866C640.943 148.47 641.381 148.898 642.214 149.148C643.048 149.398 644.434 149.544 646.372 149.585C649.477 149.669 651.853 150.117 653.499 150.929C655.166 151.721 656.073 153.045 656.219 154.9V156.525C656.073 158.484 655.073 159.86 653.218 160.651C651.363 161.464 649.008 161.871 646.153 161.871ZM645.903 142.239C647.57 142.239 648.748 142.01 649.435 141.551C650.144 141.093 650.529 140.343 650.592 139.301C650.696 137.821 650.748 136.102 650.748 134.143C650.748 132.163 650.696 130.36 650.592 128.735C650.529 127.63 650.144 126.859 649.435 126.421C648.727 125.984 647.549 125.765 645.903 125.765C644.257 125.765 643.079 125.994 642.371 126.453C641.662 126.89 641.266 127.661 641.183 128.766C640.953 132.726 640.953 136.216 641.183 139.238C641.266 140.259 641.672 141.02 642.402 141.52C643.131 141.999 644.298 142.239 645.903 142.239ZM646.247 158.557C648.039 158.557 649.498 158.39 650.623 158.057C651.769 157.723 652.384 157.129 652.468 156.275C652.488 156.046 652.488 155.827 652.468 155.619C652.468 155.431 652.468 155.233 652.468 155.025C652.384 154.128 651.78 153.545 650.655 153.274C649.55 153.024 648.081 152.878 646.247 152.836C644.475 152.795 643.058 152.93 641.995 153.243C640.953 153.555 640.38 154.16 640.276 155.056V156.275C640.38 157.192 640.964 157.796 642.027 158.088C643.09 158.401 644.496 158.557 646.247 158.557ZM685.666 153.493C681.581 153.493 678.674 152.878 676.944 151.648C675.215 150.419 674.298 148.397 674.194 145.584C673.985 140.52 673.881 135.581 673.881 130.767C673.881 125.932 673.985 120.982 674.194 115.918C674.298 113.104 675.215 111.093 676.944 109.885C678.674 108.655 681.581 108.04 685.666 108.04C689.73 108.04 692.648 108.655 694.419 109.885C696.19 111.093 697.087 113.104 697.107 115.918C697.232 121.003 697.295 125.952 697.295 130.767C697.295 135.581 697.232 140.52 697.107 145.584C697.087 148.397 696.19 150.419 694.419 151.648C692.648 152.878 689.73 153.493 685.666 153.493ZM685.666 149.742C688.25 149.742 690.063 149.481 691.105 148.96C692.147 148.418 692.7 147.543 692.762 146.334C693.054 141.124 693.169 135.893 693.106 130.641C693.064 125.39 692.95 120.242 692.762 115.199C692.7 113.969 692.137 113.094 691.074 112.573C690.011 112.052 688.209 111.792 685.666 111.792C683.082 111.792 681.258 112.052 680.196 112.573C679.154 113.094 678.601 113.969 678.539 115.199C678.247 120.242 678.112 125.39 678.132 130.641C678.174 135.893 678.31 141.124 678.539 146.334C678.601 147.543 679.154 148.418 680.196 148.96C681.258 149.481 683.082 149.742 685.666 149.742ZM706.829 153.086H702.797V122.67H706.829V125.515H707.798C708.444 124.473 709.289 123.67 710.331 123.108C711.393 122.545 712.727 122.264 714.332 122.264C716.687 122.264 718.437 122.785 719.584 123.827C720.73 124.848 721.303 126.567 721.303 128.985V153.086H717.302V128.641C717.302 127.599 716.968 126.849 716.301 126.39C715.655 125.911 714.603 125.671 713.144 125.671C711.685 125.671 710.403 125.921 709.299 126.421C708.194 126.922 707.371 127.62 706.829 128.516V153.086Z"
        fill="#1A36C0" />
    <path opacity="0.2" d="M668.5 78H1310.5" stroke="url(#paint0_linear_21_3)" stroke-width="2"
        stroke-linecap="round" />
    <path opacity="0.2" d="M-121 131H521" stroke="url(#paint1_linear_21_3)" stroke-width="2"
        stroke-linecap="round" />
    <path
        d="M471.05 23.5782L471.121 23.879L471.422 23.95L492.823 29L471.422 34.05L471.121 34.121L471.05 34.4218L466 55.8229L460.95 34.4218L460.879 34.121L460.578 34.05L439.177 29L460.578 23.95L460.879 23.879L460.95 23.5782L466 2.17711L471.05 23.5782Z"
        stroke="#1A36C0" />
    <path
        d="M750.05 168.578L750.121 168.879L750.422 168.95L771.823 174L750.422 179.05L750.121 179.121L750.05 179.422L745 200.823L739.95 179.422L739.879 179.121L739.578 179.05L718.177 174L739.578 168.95L739.879 168.879L739.95 168.578L745 147.177L750.05 168.578Z"
        stroke="#1A36C0" />
    <path
        d="M437 42L440.055 54.9453L453 58L440.055 61.0547L437 74L433.945 61.0547L421 58L433.945 54.9453L437 42Z"
        fill="#1A36C0" />
    <path
        d="M784 128L787.055 140.945L800 144L787.055 147.055L784 160L780.945 147.055L768 144L780.945 140.945L784 128Z"
        fill="#1A36C0" />
    <defs>
        <linearGradient id="paint0_linear_21_3" x1="668.5" y1="78.5" x2="1310.5" y2="78.5"
            gradientUnits="userSpaceOnUse">
            <stop offset="0.633151" stop-color="#1A36C0" />
            <stop offset="0.925054" stop-color="#1A36C0" stop-opacity="0" />
        </linearGradient>
        <linearGradient id="paint1_linear_21_3" x1="-121" y1="131.5" x2="521" y2="131.5"
            gradientUnits="userSpaceOnUse">
            <stop offset="0.221266" stop-color="#0C195A" stop-opacity="0" />
            <stop offset="0.477839" stop-color="#1A36C0" />
        </linearGradient>
    </defs>
</svg>
